<?xml version="1.0" encoding="UTF-8" standalone="no"?>
<svg
   width="22"
   height="22"
   viewBox="0 0 22 22"
   fill="none"
   version="1.1"
   id="svg224"
   sodipodi:docname="add.svg"
   inkscape:version="1.1-alpha (c0348e27, 2021-02-14)"
   xmlns:inkscape="http://www.inkscape.org/namespaces/inkscape"
   xmlns:sodipodi="http://sodipodi.sourceforge.net/DTD/sodipodi-0.dtd"
   xmlns="http://www.w3.org/2000/svg"
   xmlns:svg="http://www.w3.org/2000/svg">
  <defs
     id="defs228" />
  <sodipodi:namedview
     id="namedview226"
     pagecolor="#505050"
     bordercolor="#eeeeee"
     borderopacity="1"
     objecttolerance="10.0"
     gridtolerance="10.0"
     guidetolerance="10.0"
     inkscape:pageshadow="0"
     inkscape:pageopacity="0"
     inkscape:pagecheckerboard="0"
     showgrid="false"
     inkscape:zoom="28.409091"
     inkscape:cx="10.9824"
     inkscape:cy="11"
     inkscape:window-width="1327"
     inkscape:window-height="847"
     inkscape:window-x="0"
     inkscape:window-y="205"
     inkscape:window-maximized="0"
     inkscape:current-layer="svg224" />
  <path
     id="path218"
     style="color:#000000;fill:#000000;stroke-linecap:round;stroke-linejoin:round;-inkscape-stroke:none"
     d="M 11 0.5 C 5.206936 0.5 0.5 5.206936 0.5 11 C 0.5 16.793016 5.206933 21.5 11 21.5 C 16.793019 21.5 21.5 16.793019 21.5 11 C 21.5 5.206933 16.793016 0.5 11 0.5 z M 11 1.5 C 16.252573 1.5 20.5 5.7473781 20.5 11 C 20.5 16.252569 16.252569 20.5 11 20.5 C 5.7473781 20.5 1.5 16.252573 1.5 11 C 1.5 5.747375 5.747375 1.5 11 1.5 z M 11 6.5 A 0.5 0.5 0 0 0 10.5 7 L 10.5 10.5 L 7 10.5 A 0.5 0.5 0 0 0 6.5 11 A 0.5 0.5 0 0 0 7 11.5 L 10.5 11.5 L 10.5 15 A 0.5 0.5 0 0 0 11 15.5 A 0.5 0.5 0 0 0 11.5 15 L 11.5 11.5 L 15 11.5 A 0.5 0.5 0 0 0 15.5 11 A 0.5 0.5 0 0 0 15 10.5 L 11.5 10.5 L 11.5 7 A 0.5 0.5 0 0 0 11 6.5 z " />
</svg>
