<?xml version="1.0" encoding="UTF-8" standalone="no"?>
<svg
   width="21"
   height="20"
   viewBox="0 0 21 20"
   fill="none"
   version="1.1"
   id="svg209"
   sodipodi:docname="cart.svg"
   inkscape:version="1.1-alpha (c0348e27, 2021-02-14)"
   xmlns:inkscape="http://www.inkscape.org/namespaces/inkscape"
   xmlns:sodipodi="http://sodipodi.sourceforge.net/DTD/sodipodi-0.dtd"
   xmlns="http://www.w3.org/2000/svg"
   xmlns:svg="http://www.w3.org/2000/svg">
  <defs
     id="defs213" />
  <sodipodi:namedview
     id="namedview211"
     pagecolor="#ffffff"
     bordercolor="#666666"
     borderopacity="1.0"
     objecttolerance="10.0"
     gridtolerance="10.0"
     guidetolerance="10.0"
     inkscape:pageshadow="2"
     inkscape:pageopacity="0.0"
     inkscape:pagecheckerboard="0"
     showgrid="false"
     inkscape:zoom="31.25"
     inkscape:cx="12.304"
     inkscape:cy="11.28"
     inkscape:window-width="1440"
     inkscape:window-height="847"
     inkscape:window-x="0"
     inkscape:window-y="205"
     inkscape:window-maximized="0"
     inkscape:current-layer="svg209" />
  <path
     id="path203"
     style="color:#000000;fill:#000000;stroke-linecap:round;stroke-linejoin:round;-inkscape-stroke:none"
     d="M 1.1992188 0.5 A 0.5 0.5 0 0 0 0.69921875 1 A 0.5 0.5 0 0 0 1.1992188 1.5 L 4.2441406 1.5 L 6.4785156 12.662109 C 6.5803369 13.174697 6.8604551 13.63516 7.2675781 13.962891 C 7.6746974 14.290628 8.1825539 14.465134 8.7050781 14.455078 L 17.082031 14.455078 C 17.60455 14.465138 18.114375 14.290693 18.521484 13.962891 C 18.928638 13.635157 19.206752 13.174671 19.308594 12.662109 A 0.50005 0.50005 0 0 0 19.308594 12.660156 A 0.50005 0.50005 0 0 0 19.308594 12.658203 L 20.691406 5.4121094 A 0.50005 0.50005 0 0 0 20.199219 4.8183594 L 5.9277344 4.8183594 L 5.1445312 0.90234375 A 0.50005 0.50005 0 0 0 4.6542969 0.5 L 1.1992188 0.5 z M 6.1289062 5.8183594 L 19.595703 5.8183594 L 18.326172 12.46875 L 18.326172 12.470703 C 18.269302 12.751571 18.117811 13.003867 17.894531 13.183594 A 0.50005 0.50005 0 0 0 17.892578 13.183594 C 17.668288 13.364191 17.38769 13.460622 17.099609 13.455078 A 0.50005 0.50005 0 0 0 17.091797 13.455078 L 8.6972656 13.455078 A 0.50005 0.50005 0 0 0 8.6875 13.455078 C 8.3994094 13.460575 8.1189513 13.364256 7.8945312 13.183594 C 7.6700949 13.002925 7.5151229 12.749409 7.4589844 12.466797 L 6.1289062 5.8183594 z M 8.109375 16.908203 C 7.3621581 16.908203 6.7460939 17.526229 6.7460938 18.273438 C 6.7460938 19.020603 7.3621581 19.636719 8.109375 19.636719 C 8.8565919 19.636719 9.4726561 19.020604 9.4726562 18.273438 C 9.4726562 17.526229 8.8565919 16.908203 8.109375 16.908203 z M 17.609375 16.908203 C 16.862145 16.908203 16.246094 17.526279 16.246094 18.273438 C 16.246094 19.020554 16.862145 19.636719 17.609375 19.636719 C 18.356605 19.636719 18.972656 19.020625 18.972656 18.273438 C 18.972656 17.526208 18.356605 16.908203 17.609375 16.908203 z M 8.109375 17.908203 C 8.3160972 17.908203 8.4726562 18.066647 8.4726562 18.273438 C 8.4726562 18.480072 8.3160972 18.636719 8.109375 18.636719 C 7.9026528 18.636719 7.7460939 18.480072 7.7460938 18.273438 C 7.7460938 18.066647 7.9026528 17.908203 8.109375 17.908203 z M 17.609375 17.908203 C 17.816144 17.908203 17.972656 18.066668 17.972656 18.273438 C 17.972656 18.480051 17.816144 18.636719 17.609375 18.636719 C 17.402606 18.636719 17.246094 18.480121 17.246094 18.273438 C 17.246094 18.066599 17.402606 17.908203 17.609375 17.908203 z " />
</svg>
