<?xml version="1.0" encoding="UTF-8" standalone="no"?>
<svg
   width="15"
   height="14"
   viewBox="0 0 15 14"
   fill="none"
   version="1.1"
   id="svg281"
   sodipodi:docname="clock.svg"
   inkscape:version="1.1-alpha (c0348e27, 2021-02-14)"
   xmlns:inkscape="http://www.inkscape.org/namespaces/inkscape"
   xmlns:sodipodi="http://sodipodi.sourceforge.net/DTD/sodipodi-0.dtd"
   xmlns="http://www.w3.org/2000/svg"
   xmlns:svg="http://www.w3.org/2000/svg">
  <sodipodi:namedview
     id="namedview283"
     pagecolor="#505050"
     bordercolor="#eeeeee"
     borderopacity="1"
     objecttolerance="10.0"
     gridtolerance="10.0"
     guidetolerance="10.0"
     inkscape:pageshadow="0"
     inkscape:pageopacity="0"
     inkscape:pagecheckerboard="0"
     showgrid="false"
     inkscape:zoom="44.642857"
     inkscape:cx="7.504"
     inkscape:cy="7"
     inkscape:window-width="1327"
     inkscape:window-height="847"
     inkscape:window-x="0"
     inkscape:window-y="25"
     inkscape:window-maximized="0"
     inkscape:current-layer="svg281" />
  <g
     clip-path="url(#clip0)"
     id="g274">
    <path
       id="path270"
       style="color:#000000;fill:#000000;stroke-linecap:round;stroke-linejoin:round;-inkscape-stroke:none"
       d="M 7.0996094 0.66601562 C 3.6077238 0.66601562 0.76757813 3.5081236 0.76757812 7 C 0.76757812 10.491858 3.6077207 13.333984 7.0996094 13.333984 C 10.591526 13.333984 13.433594 10.491851 13.433594 7 C 13.433594 3.5081308 10.591522 0.66601562 7.0996094 0.66601562 z M 7.0996094 1.6660156 C 10.05109 1.6660156 12.433594 4.0485556 12.433594 7 C 12.433594 9.9514227 10.051087 12.333984 7.0996094 12.333984 C 4.1481645 12.333984 1.7675781 9.9514155 1.7675781 7 C 1.7675781 4.0485629 4.1481614 1.6660156 7.0996094 1.6660156 z " />
    <path
       id="path272"
       style="color:#000000;fill:#000000;stroke-linecap:round;stroke-linejoin:round;-inkscape-stroke:none"
       d="M 7.0996094 3 A 0.5 0.5 0 0 0 6.5996094 3.5 L 6.5996094 7 A 0.50005 0.50005 0 0 0 6.8769531 7.4472656 L 9.2089844 8.6132812 A 0.5 0.5 0 0 0 9.8808594 8.390625 A 0.5 0.5 0 0 0 9.65625 7.71875 L 7.5996094 6.6914062 L 7.5996094 3.5 A 0.5 0.5 0 0 0 7.0996094 3 z " />
  </g>
  <defs
     id="defs279">
    <clipPath
       id="clip0">
      <rect
         width="14"
         height="14"
         fill="white"
         transform="translate(0.0999756)"
         id="rect276" />
    </clipPath>
  </defs>
</svg>
