<?xml version="1.0" encoding="UTF-8" standalone="no"?>
<svg
   width="97"
   height="97"
   viewBox="0 0 97 97"
   fill="none"
   version="1.1"
   id="svg356"
   sodipodi:docname="close.svg"
   inkscape:version="1.1-alpha (c0348e27, 2021-02-14)"
   xmlns:inkscape="http://www.inkscape.org/namespaces/inkscape"
   xmlns:sodipodi="http://sodipodi.sourceforge.net/DTD/sodipodi-0.dtd"
   xmlns="http://www.w3.org/2000/svg"
   xmlns:svg="http://www.w3.org/2000/svg">
  <defs
     id="defs360" />
  <sodipodi:namedview
     id="namedview358"
     pagecolor="#505050"
     bordercolor="#eeeeee"
     borderopacity="1"
     objecttolerance="10.0"
     gridtolerance="10.0"
     guidetolerance="10.0"
     inkscape:pageshadow="0"
     inkscape:pageopacity="0"
     inkscape:pagecheckerboard="0"
     showgrid="false"
     inkscape:zoom="6.443299"
     inkscape:cx="48.4224"
     inkscape:cy="48.5"
     inkscape:window-width="1327"
     inkscape:window-height="847"
     inkscape:window-x="0"
     inkscape:window-y="25"
     inkscape:window-maximized="0"
     inkscape:current-layer="svg356" />
  <path
     id="path350"
     style="color:#000000;fill:#000000;stroke-linecap:round;stroke-linejoin:round;-inkscape-stroke:none"
     d="M 48.5 0 C 21.726085 0 0 21.726085 0 48.5 C 0 75.273915 21.726085 97 48.5 97 C 75.273915 97 97 75.273915 97 48.5 C 97 21.726085 75.273915 0 48.5 0 z M 48.5 2 C 74.193033 2 95 22.806967 95 48.5 C 95 74.193033 74.193033 95 48.5 95 C 22.806967 95 2 74.193033 2 48.5 C 2 22.806967 22.806967 2 48.5 2 z M 34.25 33.25 A 1 1 0 0 0 33.542969 33.542969 A 1 1 0 0 0 33.542969 34.957031 L 47.085938 48.5 L 33.542969 62.042969 A 1 1 0 0 0 33.542969 63.457031 A 1 1 0 0 0 34.957031 63.457031 L 48.5 49.914062 L 62.042969 63.457031 A 1 1 0 0 0 63.457031 63.457031 A 1 1 0 0 0 63.457031 62.042969 L 49.914062 48.5 L 63.457031 34.957031 A 1 1 0 0 0 63.457031 33.542969 A 1 1 0 0 0 62.042969 33.542969 L 48.5 47.085938 L 34.957031 33.542969 A 1 1 0 0 0 34.25 33.25 z " />
</svg>
