<?xml version="1.0" encoding="UTF-8" standalone="no"?>
<svg
   width="97"
   height="97"
   viewBox="0 0 97 97"
   fill="none"
   version="1.1"
   id="svg143"
   sodipodi:docname="confirmed.svg"
   inkscape:version="1.1-alpha (c0348e27, 2021-02-14)"
   xmlns:inkscape="http://www.inkscape.org/namespaces/inkscape"
   xmlns:sodipodi="http://sodipodi.sourceforge.net/DTD/sodipodi-0.dtd"
   xmlns="http://www.w3.org/2000/svg"
   xmlns:svg="http://www.w3.org/2000/svg">
  <defs
     id="defs147" />
  <sodipodi:namedview
     id="namedview145"
     pagecolor="#505050"
     bordercolor="#eeeeee"
     borderopacity="1"
     objecttolerance="10.0"
     gridtolerance="10.0"
     guidetolerance="10.0"
     inkscape:pageshadow="0"
     inkscape:pageopacity="0"
     inkscape:pagecheckerboard="0"
     showgrid="false"
     inkscape:zoom="6.443299"
     inkscape:cx="48.4224"
     inkscape:cy="48.5"
     inkscape:window-width="1327"
     inkscape:window-height="847"
     inkscape:window-x="0"
     inkscape:window-y="25"
     inkscape:window-maximized="0"
     inkscape:current-layer="svg143" />
  <path
     id="path139"
     style="color:#000000;fill:#000000;stroke-linecap:round;stroke-linejoin:round;-inkscape-stroke:none"
     d="M 48.433594 0 C 47.464384 0.0013019139 46.494569 0.032266359 45.525391 0.091796875 C 42.940915 0.25054493 40.360871 0.61714388 37.810547 1.1933594 C 27.609153 3.4982197 18.425969 9.0380006 11.630859 16.988281 C 4.8357769 24.938496 0.79360746 34.872769 0.10546875 45.308594 C -0.58266178 55.744418 2.1201631 66.124762 7.8125 74.898438 C 13.504827 83.672114 21.881063 90.36976 31.691406 93.994141 C 41.501847 97.618622 52.222709 97.975063 62.251953 95.009766 C 72.281295 92.044367 81.083674 85.915662 87.345703 77.539062 C 93.60773 69.162568 96.993976 58.985834 97 48.527344 L 97 44.15625 A 1 1 0 0 0 96 43.15625 A 1 1 0 0 0 95 44.15625 L 95 48.527344 C 94.9942 58.554833 91.748101 68.310508 85.744141 76.341797 C 79.740182 84.373181 71.299632 90.248601 61.683594 93.091797 C 52.067657 95.934894 41.790906 95.594252 32.384766 92.119141 C 22.978728 88.644129 14.947976 82.2207 9.4902344 73.808594 C 4.0324824 65.396487 1.4417904 55.447162 2.1015625 45.441406 C 2.7613424 35.435651 6.6372997 25.909679 13.152344 18.287109 C 19.667421 10.664466 28.470967 5.3524533 38.251953 3.1425781 C 48.032836 0.93270374 58.26644 1.9442044 67.425781 6.0253906 A 1 1 0 0 0 68.746094 5.5195312 A 1 1 0 0 0 68.240234 4.1992188 C 61.971052 1.4058189 55.218064 -0.0091133975 48.433594 0 z M 96 9.5273438 A 1 1 0 0 0 95.292969 9.8203125 L 48.5 56.660156 L 34.957031 43.117188 A 1 1 0 0 0 33.542969 43.117188 A 1 1 0 0 0 33.542969 44.53125 L 47.792969 58.78125 A 1.0001 1.0001 0 0 0 49.207031 58.78125 L 96.707031 11.234375 A 1 1 0 0 0 96.707031 9.8203125 A 1 1 0 0 0 96 9.5273438 z " />
</svg>
