<?xml version="1.0" encoding="UTF-8" standalone="no"?>
<svg
   width="16"
   height="16"
   viewBox="0 0 16 16"
   fill="none"
   version="1.1"
   id="svg6"
   sodipodi:docname="edit.svg"
   inkscape:version="1.1-alpha (c0348e27, 2021-02-14)"
   xmlns:inkscape="http://www.inkscape.org/namespaces/inkscape"
   xmlns:sodipodi="http://sodipodi.sourceforge.net/DTD/sodipodi-0.dtd"
   xmlns="http://www.w3.org/2000/svg"
   xmlns:svg="http://www.w3.org/2000/svg">
  <defs
     id="defs10" />
  <sodipodi:namedview
     id="namedview8"
     pagecolor="#505050"
     bordercolor="#eeeeee"
     borderopacity="1"
     objecttolerance="10.0"
     gridtolerance="10.0"
     guidetolerance="10.0"
     inkscape:pageshadow="0"
     inkscape:pageopacity="0"
     inkscape:pagecheckerboard="0"
     showgrid="false"
     inkscape:zoom="39.0625"
     inkscape:cx="7.9872"
     inkscape:cy="8"
     inkscape:window-width="1327"
     inkscape:window-height="847"
     inkscape:window-x="0"
     inkscape:window-y="205"
     inkscape:window-maximized="0"
     inkscape:current-layer="svg6" />
  <path
     id="path2"
     style="color:#000000;fill:#000000;stroke-linecap:round;stroke-linejoin:round;-inkscape-stroke:none"
     d="M 13.632812 0.5 C 13.105517 0.5 12.599405 0.70918814 12.226562 1.0820312 L 5.5585938 7.75 A 0.50005 0.50005 0 0 0 5.4277344 7.9824219 L 4.7265625 10.789062 A 0.50005 0.50005 0 0 0 5.3320312 11.396484 L 8.1386719 10.693359 A 0.50005 0.50005 0 0 0 8.3710938 10.5625 L 15.039062 3.8945312 C 15.411926 3.5216814 15.621094 3.0154949 15.621094 2.4882812 C 15.621094 1.9610675 15.411926 1.4548812 15.039062 1.0820312 C 14.666218 0.70918814 14.160041 0.5 13.632812 0.5 z M 13.632812 1.5 C 13.895181 1.5 14.146475 1.6035062 14.332031 1.7890625 C 14.517567 1.9745921 14.621094 2.2258157 14.621094 2.4882812 C 14.621094 2.7507466 14.517567 3.0019704 14.332031 3.1875 L 7.7617188 9.7578125 L 5.8984375 10.224609 L 6.3652344 8.3574219 L 12.933594 1.7890625 C 13.11915 1.6035062 13.370309 1.5 13.632812 1.5 z M 2.4042969 1.9882812 C 1.8996145 1.9882813 1.4135002 2.1900154 1.0566406 2.546875 C 0.69978107 2.9037346 0.5 3.3878958 0.5 3.8925781 L 0.5 13.716797 C 0.5 14.221499 0.69976199 14.707615 1.0566406 15.064453 C 1.413489 15.421261 1.8995966 15.621094 2.4042969 15.621094 L 12.228516 15.621094 C 12.733235 15.621094 13.217392 15.42128 13.574219 15.064453 C 13.931188 14.707619 14.132812 14.221516 14.132812 13.716797 L 14.132812 8.8046875 A 0.5 0.5 0 0 0 13.632812 8.3046875 A 0.5 0.5 0 0 0 13.132812 8.8046875 L 13.132812 13.716797 C 13.132812 13.956677 13.036813 14.187857 12.867188 14.357422 C 12.697615 14.526995 12.468395 14.621094 12.228516 14.621094 L 2.4042969 14.621094 C 2.1644579 14.621094 1.9332829 14.527014 1.7636719 14.357422 C 1.5940911 14.18786 1.5 13.956694 1.5 13.716797 L 1.5 3.8925781 C 1.5 3.6527212 1.5960251 3.4235061 1.765625 3.2539062 C 1.9352249 3.0843063 2.16444 2.9882811 2.4042969 2.9882812 L 7.3164062 2.9882812 A 0.5 0.5 0 0 0 7.8164062 2.4882812 A 0.5 0.5 0 0 0 7.3164062 1.9882812 L 2.4042969 1.9882812 z " />
</svg>
