<?xml version="1.0" encoding="UTF-8" standalone="no"?>
<svg
   xmlns:dc="http://purl.org/dc/elements/1.1/"
   xmlns:cc="http://creativecommons.org/ns#"
   xmlns:rdf="http://www.w3.org/1999/02/22-rdf-syntax-ns#"
   xmlns:svg="http://www.w3.org/2000/svg"
   xmlns="http://www.w3.org/2000/svg"
   xmlns:sodipodi="http://sodipodi.sourceforge.net/DTD/sodipodi-0.dtd"
   xmlns:inkscape="http://www.inkscape.org/namespaces/inkscape"
   width="17"
   height="17"
   viewBox="0 0 17 17"
   fill="none"
   version="1.1"
   id="svg178"
   sodipodi:docname="email.svg"
   inkscape:version="1.0.1 (0767f8302a, 2020-10-17)">
  <metadata
     id="metadata184">
    <rdf:RDF>
      <cc:Work
         rdf:about="">
        <dc:format>image/svg+xml</dc:format>
        <dc:type
           rdf:resource="http://purl.org/dc/dcmitype/StillImage" />
        <dc:title></dc:title>
      </cc:Work>
    </rdf:RDF>
  </metadata>
  <defs
     id="defs182" />
  <sodipodi:namedview
     pagecolor="#ffffff"
     bordercolor="#666666"
     borderopacity="1"
     objecttolerance="10"
     gridtolerance="10"
     guidetolerance="10"
     inkscape:pageopacity="0"
     inkscape:pageshadow="2"
     inkscape:window-width="1920"
     inkscape:window-height="991"
     id="namedview180"
     showgrid="false"
     inkscape:zoom="38.869356"
     inkscape:cx="8.8327471"
     inkscape:cy="9.2476105"
     inkscape:window-x="0"
     inkscape:window-y="0"
     inkscape:window-maximized="1"
     inkscape:current-layer="svg178" />
  <path
     style="color:#000000;font-style:normal;font-variant:normal;font-weight:normal;font-stretch:normal;font-size:medium;line-height:normal;font-family:sans-serif;font-variant-ligatures:normal;font-variant-position:normal;font-variant-caps:normal;font-variant-numeric:normal;font-variant-alternates:normal;font-variant-east-asian:normal;font-feature-settings:normal;font-variation-settings:normal;text-indent:0;text-align:start;text-decoration:none;text-decoration-line:none;text-decoration-style:solid;text-decoration-color:#000000;letter-spacing:normal;word-spacing:normal;text-transform:none;writing-mode:lr-tb;direction:ltr;text-orientation:mixed;dominant-baseline:auto;baseline-shift:baseline;text-anchor:start;white-space:normal;shape-padding:0;shape-margin:0;inline-size:0;clip-rule:nonzero;display:inline;overflow:visible;visibility:visible;isolation:auto;mix-blend-mode:normal;color-interpolation:sRGB;color-interpolation-filters:linearRGB;solid-color:#000000;solid-opacity:1;vector-effect:none;fill:#4736b9;fill-opacity:1;fill-rule:nonzero;stroke:none;stroke-width:1;stroke-linecap:round;stroke-linejoin:round;stroke-miterlimit:4;stroke-dasharray:none;stroke-dashoffset:0;stroke-opacity:1;color-rendering:auto;image-rendering:auto;shape-rendering:auto;text-rendering:auto;enable-background:accumulate;stop-color:#000000;stop-opacity:1;opacity:1"
     d="M 8.5 5 C 6.57292 5 5 6.5729304 5 8.5 C 5 10.427078 6.5729301 12 8.5 12 C 10.427103 12 12 10.42707 12 8.5 C 12 6.5729385 10.427113 5 8.5 5 z M 8.5 6 C 9.8866865 6 11 7.1133615 11 8.5 C 11 9.8866501 9.8866966 11 8.5 11 C 7.1133499 11 6 9.886642 6 8.5 C 6 7.1133696 7.11336 6 8.5 6 z "
     id="path192" />
  <path
     style="color:#000000;font-style:normal;font-variant:normal;font-weight:normal;font-stretch:normal;font-size:medium;line-height:normal;font-family:sans-serif;font-variant-ligatures:normal;font-variant-position:normal;font-variant-caps:normal;font-variant-numeric:normal;font-variant-alternates:normal;font-variant-east-asian:normal;font-feature-settings:normal;font-variation-settings:normal;text-indent:0;text-align:start;text-decoration:none;text-decoration-line:none;text-decoration-style:solid;text-decoration-color:#000000;letter-spacing:normal;word-spacing:normal;text-transform:none;writing-mode:lr-tb;direction:ltr;text-orientation:mixed;dominant-baseline:auto;baseline-shift:baseline;text-anchor:start;white-space:normal;shape-padding:0;shape-margin:0;inline-size:0;clip-rule:nonzero;display:inline;overflow:visible;visibility:visible;isolation:auto;mix-blend-mode:normal;color-interpolation:sRGB;color-interpolation-filters:linearRGB;solid-color:#000000;solid-opacity:1;vector-effect:none;fill:#4736b9;fill-opacity:1;fill-rule:nonzero;stroke:none;stroke-width:1;stroke-linecap:round;stroke-linejoin:round;stroke-miterlimit:4;stroke-dasharray:none;stroke-dashoffset:0;stroke-opacity:1;color-rendering:auto;image-rendering:auto;shape-rendering:auto;text-rendering:auto;enable-background:accumulate;stop-color:#000000;stop-opacity:1;opacity:1"
     d="M 7.6523438 0.54492188 C 6.7671125 0.63919793 5.8982221 0.88186619 5.0820312 1.2675781 C 3.4496403 2.0389971 2.1254408 3.3400528 1.3261719 4.9589844 C 0.52690509 6.5779223 0.29954761 8.4185892 0.6796875 10.183594 C 1.0598286 11.948626 2.0250485 13.533381 3.4199219 14.679688 C 4.814776 15.826085 6.5580532 16.467008 8.3632812 16.498047 C 10.16847 16.529085 11.92985 15.949329 13.363281 14.851562 A 0.5 0.5 0 0 0 13.457031 14.150391 A 0.5 0.5 0 0 0 12.755859 14.056641 C 11.501491 15.017275 9.9585976 15.525208 8.3789062 15.498047 C 6.7991743 15.470885 5.2753133 14.911406 4.0546875 13.908203 C 2.8340808 12.905109 1.9889089 11.519177 1.65625 9.9746094 C 1.3235939 8.4300739 1.523223 6.8171127 2.2226562 5.4003906 C 2.9220873 3.9836822 4.0812765 2.8469361 5.5097656 2.171875 C 6.938244 1.4968109 8.5531562 1.3245219 10.091797 1.6835938 C 11.630384 2.0426565 13.000206 2.9107882 13.982422 4.1484375 C 14.964528 5.3860671 15.499907 6.9200273 15.5 8.5 L 15.5 9.25 C 15.5 9.7142982 15.31654 10.158069 14.988281 10.486328 C 14.65992 10.81469 14.214305 11 13.75 11 C 13.285695 11 12.84008 10.81469 12.511719 10.486328 C 12.18346 10.158069 12 9.7142982 12 9.25 L 12 5.5 A 0.5 0.5 0 0 0 11.5 5 A 0.5 0.5 0 0 0 11 5.5 L 11 9.25 C 11 9.9791818 11.289146 10.677818 11.804688 11.193359 C 12.320326 11.708998 13.020905 12 13.75 12 C 14.479095 12 15.179674 11.708998 15.695312 11.193359 C 16.210854 10.677818 16.5 9.9791818 16.5 9.25 L 16.5 8.5 C 16.499893 6.6945127 15.889872 4.9416341 14.767578 3.5273438 C 13.645194 2.113073 12.076573 1.1193017 10.318359 0.70898438 C 9.4392297 0.5038223 8.537575 0.45064582 7.6523438 0.54492188 z "
     id="path188" />
</svg>
