<?xml version="1.0" encoding="UTF-8" standalone="no"?>
<svg
   width="23"
   height="20"
   viewBox="0 0 23 20"
   fill="none"
   version="1.1"
   id="svg4"
   sodipodi:docname="favorite.svg"
   inkscape:version="1.1-alpha (c0348e27, 2021-02-14)"
   xmlns:inkscape="http://www.inkscape.org/namespaces/inkscape"
   xmlns:sodipodi="http://sodipodi.sourceforge.net/DTD/sodipodi-0.dtd"
   xmlns="http://www.w3.org/2000/svg"
   xmlns:svg="http://www.w3.org/2000/svg">
  <defs
     id="defs8" />
  <sodipodi:namedview
     id="namedview6"
     pagecolor="#505050"
     bordercolor="#eeeeee"
     borderopacity="1"
     objecttolerance="10.0"
     gridtolerance="10.0"
     guidetolerance="10.0"
     inkscape:pageshadow="0"
     inkscape:pageopacity="0"
     inkscape:pagecheckerboard="0"
     showgrid="false"
     inkscape:zoom="31.25"
     inkscape:cx="11.488"
     inkscape:cy="10"
     inkscape:window-width="1327"
     inkscape:window-height="847"
     inkscape:window-x="0"
     inkscape:window-y="205"
     inkscape:window-maximized="0"
     inkscape:current-layer="svg4" />
  <path
     id="path2"
     style="color:#000000;fill:#000000;stroke-linecap:round;stroke-linejoin:round;-inkscape-stroke:none"
     d="M 6.7011719 0.5 C 5.1097267 0.5 3.582361 1.1324827 2.4570312 2.2578125 C 1.3317104 3.3831332 0.69921875 4.9104989 0.69921875 6.5019531 C 0.69921875 8.0933983 1.3317065 9.6207905 2.4570312 10.746094 L 3.5175781 11.804688 L 11.296875 19.585938 A 0.50005 0.50005 0 0 0 12.003906 19.585938 L 19.785156 11.804688 L 20.845703 10.746094 C 21.403152 10.188939 21.844832 9.5270048 22.146484 8.7988281 C 22.44824 8.0706655 22.603516 7.2900858 22.603516 6.5019531 C 22.603516 5.7138113 22.44824 4.9332407 22.146484 4.2050781 C 21.844832 3.4769014 21.403146 2.8149823 20.845703 2.2578125 C 20.288492 1.7003837 19.62651 1.2587331 18.898438 0.95703125 C 18.170278 0.65533878 17.389736 0.5 16.601562 0.5 C 15.813389 0.5 15.032846 0.65533878 14.304688 0.95703125 C 13.576614 1.2587331 12.914633 1.7003837 12.357422 2.2578125 L 11.650391 2.9648438 L 10.945312 2.2578125 C 9.8199911 1.1324807 8.2926261 0.5 6.7011719 0.5 z M 6.7011719 1.5 C 8.0277947 1.5 9.3002244 2.0267776 10.238281 2.9648438 L 11.296875 4.0253906 A 0.50005 0.50005 0 0 0 12.003906 4.0253906 L 13.064453 2.9648438 C 13.528841 2.5002735 14.080774 2.132277 14.6875 1.8808594 C 15.294339 1.6294324 15.944738 1.5 16.601562 1.5 C 17.258388 1.5 17.908786 1.6294324 18.515625 1.8808594 C 19.122351 2.132277 19.67233 2.5002735 20.136719 2.9648438 A 0.50005 0.50005 0 0 0 20.138672 2.9648438 C 20.603228 3.4291729 20.971309 3.9811487 21.222656 4.5878906 C 21.4741 5.1946467 21.603516 5.8451164 21.603516 6.5019531 C 21.603516 7.158779 21.4741 7.8092596 21.222656 8.4160156 C 20.971309 9.0227576 20.603222 9.5747574 20.138672 10.039062 L 19.078125 11.097656 L 11.650391 18.525391 L 4.2246094 11.097656 L 3.1640625 10.039062 C 2.2260093 9.101027 1.6992188 7.8285651 1.6992188 6.5019531 C 1.6992188 5.1753303 2.2260053 3.9029009 3.1640625 2.9648438 C 4.1021306 2.0267755 5.3745599 1.5 6.7011719 1.5 z " />
</svg>
