<?xml version="1.0" encoding="UTF-8" standalone="no"?>
<svg
   height="493pt"
   viewBox="0 -11 493.78 493"
   width="493pt"
   version="1.1"
   id="svg83"
   sodipodi:docname="bill.svg"
   inkscape:version="1.1-alpha (c0348e27, 2021-02-14)"
   xmlns:inkscape="http://www.inkscape.org/namespaces/inkscape"
   xmlns:sodipodi="http://sodipodi.sourceforge.net/DTD/sodipodi-0.dtd"
   xmlns="http://www.w3.org/2000/svg"
   xmlns:svg="http://www.w3.org/2000/svg">
  <defs
     id="defs87" />
  <sodipodi:namedview
     id="namedview85"
     pagecolor="#505050"
     bordercolor="#eeeeee"
     borderopacity="1"
     objecttolerance="10.0"
     gridtolerance="10.0"
     guidetolerance="10.0"
     inkscape:pageshadow="0"
     inkscape:pageopacity="0"
     inkscape:pagecheckerboard="0"
     inkscape:document-units="pt"
     showgrid="false"
     inkscape:zoom="0.94472617"
     inkscape:cx="328.66667"
     inkscape:cy="328.66667"
     inkscape:window-width="1440"
     inkscape:window-height="847"
     inkscape:window-x="0"
     inkscape:window-y="25"
     inkscape:window-maximized="1"
     inkscape:current-layer="svg83" />
  <path
     id="path69"
     style="color:#000000;fill:#000000;stroke-width:1.33123;-inkscape-stroke:none"
     d="M 506.14258 15.683594 C 440.62645 15.683594 384.71361 58.433016 363.76758 115.67578 L 99.441406 115.67578 C 93.586086 115.67578 88.832616 120.95457 88.791016 126.80469 L 86.275391 500.40039 L 10.929688 500.40039 C 5.0483675 500.40039 0 504.65906 0 510.55078 L 0 557.96094 C 0.13520209 602.59344 35.287339 639.25774 79.873047 641.27539 L 79.873047 641.50977 L 408.6875 641.50977 L 408.6875 641.19727 C 411.34995 641.29607 412.44603 641.50977 414.13086 641.50977 L 414.35938 641.50977 C 460.50511 641.43696 497.87891 604.00706 497.87891 557.86133 L 497.87891 318.1582 C 500.54136 318.3038 503.35918 318.38086 506.11523 318.38086 C 589.48854 318.38086 657.33594 250.40584 657.33594 167.02734 C 657.33594 83.654041 589.52107 15.683594 506.14258 15.683594 z M 506.14648 37.279297 C 577.88714 37.279297 636.04492 95.440985 636.04492 167.18164 C 635.96693 238.8911 577.85723 297.00793 506.14258 297.08594 C 434.40192 297.08594 376.23882 238.9275 376.24414 167.18164 C 376.24414 95.435784 434.40063 37.279297 506.14648 37.279297 z M 504.53516 67.751953 C 498.65383 67.751953 493.88477 72.519072 493.88477 78.400391 L 493.88477 89.119141 C 472.02351 94.964058 457.87966 116.11232 460.82812 138.55078 C 463.77658 160.98924 482.90234 177.76562 505.5332 177.76562 C 518.67387 177.76562 529.32422 188.41988 529.32422 201.56055 C 529.32422 214.69602 518.67387 225.35156 505.5332 225.35156 C 492.39254 225.35156 481.74219 214.69602 481.74219 201.56055 C 481.74219 195.67923 476.97507 190.91016 471.09375 190.91016 C 465.21243 190.91016 460.44336 195.67923 460.44336 201.56055 C 460.46936 221.96577 474.17636 239.81828 493.88477 245.11719 L 493.88477 256.78516 C 493.88477 262.66646 498.65383 267.43555 504.53516 267.43555 C 510.41648 267.43555 515.18555 262.66646 515.18555 256.78516 L 515.18555 245.60547 C 537.676 240.68097 552.84373 219.59985 550.36328 196.70898 C 547.88804 173.81812 528.55928 156.46928 505.5332 156.47461 C 492.75654 156.47981 482.25832 146.39321 481.75391 133.62695 C 481.2547 120.86069 490.93162 109.97564 503.67188 108.98242 L 503.67188 108.97852 C 503.95789 108.99931 504.24395 109.01953 504.53516 109.01953 C 505.02916 109.01953 505.52225 108.97776 506.00586 108.91016 C 518.94891 109.17536 529.30864 119.73076 529.32422 132.67383 C 529.32422 138.55515 534.09329 143.32422 539.97461 143.32422 C 545.85593 143.32422 550.62305 138.55515 550.62305 132.67383 C 550.59705 111.5042 535.86117 93.190058 515.18555 88.634766 L 515.18555 78.400391 C 515.18555 72.519072 510.41648 67.751953 504.53516 67.751953 z M 110.01953 136.97461 L 357.85547 136.97461 C 355.96783 146.72481 354.98955 156.62572 354.9375 166.55273 C 354.91669 187.54556 359.296 208.30445 367.79297 227.49805 L 267.20312 227.49805 C 261.3166 227.49805 256.55273 232.26712 256.55273 238.14844 C 256.55273 244.02975 261.3166 248.79883 267.20312 248.79883 L 379.34766 248.79883 C 401.3181 283.34832 436.44047 307.43397 476.58008 315.49414 L 476.58008 557.85156 C 476.58528 592.24505 448.73791 620.14331 414.34961 620.21094 L 414.14648 620.21094 C 379.61778 620.14853 351.61497 592.23444 351.44336 557.71094 L 351.44336 510.55078 C 351.53177 507.82592 350.49174 505.18966 348.5625 503.26562 C 346.63326 501.34159 343.997 500.30681 341.27734 500.40039 L 107.57422 500.40039 L 110.01953 136.97461 z M 198.8418 205.79883 C 180.04341 205.79883 164.75586 220.60822 164.75586 238.80859 C 164.75586 257.00896 180.04341 271.81445 198.8418 271.81445 C 217.64017 271.81445 232.93359 257.00896 232.93359 238.80859 C 232.93359 220.60822 217.64017 205.79883 198.8418 205.79883 z M 198.8418 227.09766 C 205.89313 227.09766 211.63477 232.35007 211.63477 238.80859 C 211.63477 245.26193 205.89313 250.51953 198.8418 250.51953 L 198.8418 250.51367 C 191.78525 250.51367 186.05469 245.26193 186.05469 238.80859 C 186.05469 232.35526 191.79045 227.09766 198.8418 227.09766 z M 198.8418 298.37695 C 180.04341 298.37695 164.75586 313.1805 164.75586 331.38086 C 164.75586 349.58124 180.04341 364.38672 198.8418 364.38672 C 217.64017 364.38672 232.93359 349.58124 232.93359 331.38086 C 232.93359 313.1805 217.64017 298.37695 198.8418 298.37695 z M 198.8418 319.67578 C 205.89313 319.67578 211.63477 324.92754 211.63477 331.38086 C 211.63477 337.8342 205.89313 343.08594 198.8418 343.08594 C 191.78525 343.08594 186.05469 337.8342 186.05469 331.38086 C 186.05469 324.92233 191.79045 319.67578 198.8418 319.67578 z M 267.20312 320.68359 C 261.31661 320.68359 256.55273 325.45266 256.55273 331.33398 C 256.55273 337.21529 261.31661 341.98438 267.20312 341.98438 L 409.18555 341.98438 C 415.06687 341.98438 419.83594 337.21529 419.83594 331.33398 C 419.83594 325.45266 415.06687 320.68359 409.18555 320.68359 L 267.20312 320.68359 z M 198.8418 390.94336 C 180.04341 390.94336 164.75586 405.74689 164.75586 423.94727 C 164.75586 442.14763 180.04341 456.95312 198.8418 456.95312 C 217.64017 456.95312 232.93359 442.14763 232.93359 423.94727 C 232.93359 405.74689 217.64017 390.94336 198.8418 390.94336 z M 198.8418 412.24219 C 205.89313 412.24219 211.63477 417.49393 211.63477 423.94727 C 211.63477 430.40059 205.89313 435.6543 198.8418 435.6543 C 191.78525 435.6543 186.05469 430.40579 186.05469 423.94727 C 186.05469 417.49393 191.79045 412.24219 198.8418 412.24219 z M 267.20312 413.87109 C 261.31661 413.87109 256.55273 418.63821 256.55273 424.51953 C 256.55273 430.40085 261.31661 435.16992 267.20312 435.16992 L 409.18555 435.16992 C 415.06687 435.16992 419.83594 430.40085 419.83594 424.51953 C 419.83594 418.63821 415.06687 413.87109 409.18555 413.87109 L 267.20312 413.87109 z M 21.298828 521.69922 L 330.14453 521.69922 L 330.14453 557.69922 C 330.16013 579.92448 339.03601 601.23051 354.80273 616.89844 C 355.92075 618.01646 357.31044 618.87971 358.48047 620.21094 L 83.923828 620.21094 L 83.857422 620.21094 C 49.40672 620.16413 21.454832 592.30746 21.298828 557.85156 L 21.298828 521.69922 z "
     transform="matrix(0.75118664,0,0,0.75118664,0,-11.39)" />
</svg>
