<?xml version="1.0" encoding="UTF-8" standalone="no"?>
<svg
   width="20"
   height="20"
   viewBox="0 0 20 20"
   fill="none"
   version="1.1"
   id="svg216"
   sodipodi:docname="logout.svg"
   inkscape:version="1.1-alpha (c0348e27, 2021-02-14)"
   xmlns:inkscape="http://www.inkscape.org/namespaces/inkscape"
   xmlns:sodipodi="http://sodipodi.sourceforge.net/DTD/sodipodi-0.dtd"
   xmlns="http://www.w3.org/2000/svg"
   xmlns:svg="http://www.w3.org/2000/svg">
  <defs
     id="defs220" />
  <sodipodi:namedview
     id="namedview218"
     pagecolor="#505050"
     bordercolor="#eeeeee"
     borderopacity="1"
     objecttolerance="10.0"
     gridtolerance="10.0"
     guidetolerance="10.0"
     inkscape:pageshadow="0"
     inkscape:pageopacity="0"
     inkscape:pagecheckerboard="0"
     showgrid="false"
     inkscape:zoom="31.25"
     inkscape:cx="9.984"
     inkscape:cy="10"
     inkscape:window-width="1327"
     inkscape:window-height="847"
     inkscape:window-x="0"
     inkscape:window-y="205"
     inkscape:window-maximized="0"
     inkscape:current-layer="svg216" />
  <path
     id="path210"
     style="color:#000000;fill:#000000;stroke-linecap:round;stroke-linejoin:round;-inkscape-stroke:none"
     d="M 3 0.5 C 2.3371561 0.5 1.7011268 0.76370442 1.2324219 1.2324219 C 0.76370442 1.7011268 0.5 2.3371561 0.5 3 L 0.5 17 C 0.5 17.662821 0.76372409 18.298855 1.2324219 18.767578 C 1.701131 19.236325 2.3371624 19.5 3 19.5 L 7 19.5 A 0.5 0.5 0 0 0 7.5 19 A 0.5 0.5 0 0 0 7 18.5 L 3 18.5 C 2.6019787 18.5 2.2208833 18.342 1.9394531 18.060547 C 1.6579916 17.77907 1.5 17.397978 1.5 17 L 1.5 3 C 1.5 2.601985 1.6580113 2.2208874 1.9394531 1.9394531 C 2.2208874 1.6580113 2.601985 1.5 3 1.5 L 7 1.5 A 0.5 0.5 0 0 0 7.5 1 A 0.5 0.5 0 0 0 7 0.5 L 3 0.5 z M 14 4.5 A 0.5 0.5 0 0 0 13.646484 4.6464844 A 0.5 0.5 0 0 0 13.646484 5.3535156 L 17.792969 9.5 L 7 9.5 A 0.5 0.5 0 0 0 6.5 10 A 0.5 0.5 0 0 0 7 10.5 L 17.792969 10.5 L 13.646484 14.646484 A 0.5 0.5 0 0 0 13.646484 15.353516 A 0.5 0.5 0 0 0 14.353516 15.353516 L 19.353516 10.353516 A 0.50005 0.50005 0 0 0 19.5 10 A 0.5 0.5 0 0 0 19.353516 9.6464844 L 14.353516 4.6464844 A 0.5 0.5 0 0 0 14 4.5 z " />
</svg>
