<?xml version="1.0" encoding="UTF-8" standalone="no"?>
<svg
   width="16"
   height="16"
   viewBox="0 0 16 16"
   fill="none"
   version="1.1"
   id="svg4"
   sodipodi:docname="moon.svg"
   inkscape:version="1.1-alpha (c0348e27, 2021-02-14)"
   xmlns:inkscape="http://www.inkscape.org/namespaces/inkscape"
   xmlns:sodipodi="http://sodipodi.sourceforge.net/DTD/sodipodi-0.dtd"
   xmlns="http://www.w3.org/2000/svg"
   xmlns:svg="http://www.w3.org/2000/svg">
  <defs
     id="defs8" />
  <sodipodi:namedview
     id="namedview6"
     pagecolor="#505050"
     bordercolor="#eeeeee"
     borderopacity="1"
     objecttolerance="10.0"
     gridtolerance="10.0"
     guidetolerance="10.0"
     inkscape:pageshadow="0"
     inkscape:pageopacity="0"
     inkscape:pagecheckerboard="0"
     showgrid="false"
     inkscape:zoom="39.0625"
     inkscape:cx="7.9872"
     inkscape:cy="8"
     inkscape:window-width="1327"
     inkscape:window-height="847"
     inkscape:window-x="0"
     inkscape:window-y="205"
     inkscape:window-maximized="0"
     inkscape:current-layer="svg4" />
  <path
     id="path2"
     style="color:#000000;fill:#000000;stroke-linecap:round;stroke-linejoin:round;-inkscape-stroke:none"
     d="M 7.3242188 0.50195312 C 5.9029405 0.63329884 4.5471601 1.1660171 3.4179688 2.0390625 C 2.2887879 2.9121079 1.4321663 4.0891946 0.94726562 5.4316406 C 0.46236517 6.7740859 0.36905578 8.2279687 0.6796875 9.6210938 C 0.99031842 11.014171 1.6919044 12.289507 2.7011719 13.298828 C 3.7104465 14.308038 4.9857745 15.009648 6.3789062 15.320312 C 7.7720186 15.630864 9.2259335 15.537578 10.568359 15.052734 C 11.910816 14.567792 13.087869 13.711236 13.960938 12.582031 C 14.83401 11.452822 15.366712 10.097054 15.498047 8.6757812 A 0.50005 0.50005 0 0 0 14.703125 8.2285156 C 13.748436 8.9341714 12.572452 9.2738284 11.388672 9.1855469 C 10.204783 9.0972639 9.0913906 8.5874843 8.2519531 7.7480469 C 7.4125022 6.908596 6.9027358 5.7951957 6.8144531 4.6113281 C 6.7261703 3.4274594 7.0658303 2.2515434 7.7714844 1.296875 A 0.50005 0.50005 0 0 0 7.3242188 0.50195312 z M 6.4628906 1.7246094 C 6.0218006 2.6529252 5.7390153 3.6477378 5.8164062 4.6855469 C 5.9224834 6.1080367 6.5362746 7.4464309 7.5449219 8.4550781 C 8.5535626 9.4637188 9.8919452 10.077517 11.314453 10.183594 C 12.35221 10.260984 13.347068 9.9781986 14.275391 9.5371094 C 14.058454 10.41131 13.723281 11.252476 13.167969 11.970703 C 12.411039 12.949697 11.392457 13.692825 10.228516 14.113281 C 9.064644 14.533636 7.8054814 14.612998 6.5976562 14.34375 C 5.3898507 14.074414 4.2832466 13.466785 3.4082031 12.591797 C 2.5331725 11.71672 1.9255585 10.610104 1.65625 9.4023438 C 1.3869383 8.1945312 1.4663201 6.9353566 1.8867188 5.7714844 C 2.3071171 4.6076129 3.0503197 3.5889442 4.0292969 2.8320312 C 4.7475221 2.2767283 5.5886963 1.9415565 6.4628906 1.7246094 z " />
</svg>
