<?xml version="1.0" encoding="UTF-8" standalone="no"?>
<svg
   width="19"
   height="21"
   viewBox="0 0 19 21"
   fill="none"
   version="1.1"
   id="svg61"
   sodipodi:docname="password.svg"
   inkscape:version="1.1-alpha (c0348e27, 2021-02-14)"
   xmlns:inkscape="http://www.inkscape.org/namespaces/inkscape"
   xmlns:sodipodi="http://sodipodi.sourceforge.net/DTD/sodipodi-0.dtd"
   xmlns="http://www.w3.org/2000/svg"
   xmlns:svg="http://www.w3.org/2000/svg">
  <defs
     id="defs65" />
  <sodipodi:namedview
     id="namedview63"
     pagecolor="#ffffff"
     bordercolor="#666666"
     borderopacity="1.0"
     objecttolerance="10.0"
     gridtolerance="10.0"
     guidetolerance="10.0"
     inkscape:pageshadow="2"
     inkscape:pageopacity="0.0"
     inkscape:pagecheckerboard="0"
     showgrid="false"
     inkscape:zoom="25.837054"
     inkscape:cx="7.102203"
     inkscape:cy="11.204838"
     inkscape:window-width="1920"
     inkscape:window-height="1027"
     inkscape:window-x="1440"
     inkscape:window-y="25"
     inkscape:window-maximized="0"
     inkscape:current-layer="svg61" />
  <path
     id="path57"
     style="color:#000000;fill:#4736b9;stroke-linecap:round;stroke-linejoin:round;-inkscape-stroke:none"
     d="M 9.5507812 0.5 C 8.1585879 0.5 6.8223223 1.0526777 5.8378906 2.0371094 C 4.853459 3.021541 4.3007812 4.3578067 4.3007812 5.75 L 4.3007812 9.0507812 L 2.9003906 9.0507812 C 1.5808345 9.0507811 0.5 10.129689 0.5 11.449219 L 0.5 18.099609 C 0.5 19.419213 1.5808504 20.5 2.9003906 20.5 L 16.199219 20.5 C 17.518729 20.5 18.599609 19.419226 18.599609 18.099609 L 18.599609 11.449219 C 18.599609 10.129676 17.518745 9.0507812 16.199219 9.0507812 L 14.800781 9.0507812 L 14.800781 5.75 C 14.800781 4.3578173 14.246156 3.0215463 13.261719 2.0371094 C 12.277284 1.0526751 10.942948 0.5 9.5507812 0.5 z M 9.5507812 1.5 C 10.678112 1.5 11.757523 1.9469767 12.554688 2.7441406 C 13.351848 3.5413019 13.800781 4.6226252 13.800781 5.75 L 13.800781 9.0507812 L 5.3007812 9.0507812 L 5.3007812 5.75 C 5.3007812 4.6226358 5.7477553 3.5413072 6.5449219 2.7441406 C 7.3420884 1.9469741 8.423417 1.5 9.5507812 1.5 z M 2.9003906 10.050781 L 4.8007812 10.050781 L 14.300781 10.050781 L 16.199219 10.050781 C 16.97829 10.050781 17.599609 10.670163 17.599609 11.449219 L 17.599609 18.099609 C 17.599609 18.878791 16.978306 19.5 16.199219 19.5 L 2.9003906 19.5 C 2.121253 19.5 1.5 18.878803 1.5 18.099609 L 1.5 11.449219 C 1.5 10.67015 2.1212689 10.050781 2.9003906 10.050781 z " />
</svg>
