<?xml version="1.0" encoding="UTF-8" standalone="no"?>
<svg
   xmlns:dc="http://purl.org/dc/elements/1.1/"
   xmlns:cc="http://creativecommons.org/ns#"
   xmlns:rdf="http://www.w3.org/1999/02/22-rdf-syntax-ns#"
   xmlns:svg="http://www.w3.org/2000/svg"
   xmlns="http://www.w3.org/2000/svg"
   xmlns:sodipodi="http://sodipodi.sourceforge.net/DTD/sodipodi-0.dtd"
   xmlns:inkscape="http://www.inkscape.org/namespaces/inkscape"
   width="17"
   height="20"
   viewBox="0 0 17 20"
   fill="none"
   version="1.1"
   id="svg646"
   sodipodi:docname="pin.svg"
   inkscape:version="1.0.1 (0767f8302a, 2020-10-17)">
  <metadata
     id="metadata652">
    <rdf:RDF>
      <cc:Work
         rdf:about="">
        <dc:format>image/svg+xml</dc:format>
        <dc:type
           rdf:resource="http://purl.org/dc/dcmitype/StillImage" />
        <dc:title></dc:title>
      </cc:Work>
    </rdf:RDF>
  </metadata>
  <defs
     id="defs650" />
  <sodipodi:namedview
     pagecolor="#ffffff"
     bordercolor="#666666"
     borderopacity="1"
     objecttolerance="10"
     gridtolerance="10"
     guidetolerance="10"
     inkscape:pageopacity="0"
     inkscape:pageshadow="2"
     inkscape:window-width="1920"
     inkscape:window-height="991"
     id="namedview648"
     showgrid="false"
     inkscape:zoom="17.735726"
     inkscape:cx="28.061951"
     inkscape:cy="16.673954"
     inkscape:window-x="0"
     inkscape:window-y="0"
     inkscape:window-maximized="1"
     inkscape:current-layer="svg646" />
  <path
     style="color:#000000;font-style:normal;font-variant:normal;font-weight:normal;font-stretch:normal;font-size:medium;line-height:normal;font-family:sans-serif;font-variant-ligatures:normal;font-variant-position:normal;font-variant-caps:normal;font-variant-numeric:normal;font-variant-alternates:normal;font-variant-east-asian:normal;font-feature-settings:normal;font-variation-settings:normal;text-indent:0;text-align:start;text-decoration:none;text-decoration-line:none;text-decoration-style:solid;text-decoration-color:#000000;letter-spacing:normal;word-spacing:normal;text-transform:none;writing-mode:lr-tb;direction:ltr;text-orientation:mixed;dominant-baseline:auto;baseline-shift:baseline;text-anchor:start;white-space:normal;shape-padding:0;shape-margin:0;inline-size:0;clip-rule:nonzero;display:inline;overflow:visible;visibility:visible;isolation:auto;mix-blend-mode:normal;color-interpolation:sRGB;color-interpolation-filters:linearRGB;solid-color:#000000;solid-opacity:1;vector-effect:none;fill:#7c7c7c;fill-opacity:1;fill-rule:nonzero;stroke:none;stroke-width:1;stroke-linecap:round;stroke-linejoin:round;stroke-miterlimit:4;stroke-dasharray:none;stroke-dashoffset:0;stroke-opacity:1;color-rendering:auto;image-rendering:auto;shape-rendering:auto;text-rendering:auto;enable-background:accumulate;stop-color:#000000;stop-opacity:1;opacity:1"
     d="M 8.5 0.5 C 6.378463 0.5 4.3439027 1.3435973 2.84375 2.84375 C 1.3435973 4.3439027 0.5 6.378463 0.5 8.5 C 0.5 11.630937 2.4695506 14.423592 4.3867188 16.447266 C 6.3038869 18.470939 8.2226562 19.75 8.2226562 19.75 A 0.50005 0.50005 0 0 0 8.7773438 19.75 C 8.7773438 19.75 10.696113 18.470939 12.613281 16.447266 C 14.530449 14.423592 16.5 11.630937 16.5 8.5 C 16.5 6.3784596 15.656379 4.3439008 14.15625 2.84375 C 12.656112 1.343591 10.621518 0.5 8.5 0.5 z M 8.5 1.5 C 10.356682 1.5 12.136356 2.2379003 13.449219 3.5507812 C 14.762089 4.8636705 15.5 6.6433004 15.5 8.5 C 15.5 11.202363 13.719551 13.825114 11.886719 15.759766 C 10.192428 17.54818 8.7462913 18.511557 8.5 18.679688 C 8.2537087 18.511557 6.8075717 17.54818 5.1132812 15.759766 C 3.2804494 13.825114 1.5 11.202363 1.5 8.5 C 1.5 6.643297 2.237894 4.8636685 3.5507812 3.5507812 C 4.8636685 2.237894 6.643297 1.5 8.5 1.5 z "
     id="path660" />
  <path
     style="color:#000000;font-style:normal;font-variant:normal;font-weight:normal;font-stretch:normal;font-size:medium;line-height:normal;font-family:sans-serif;font-variant-ligatures:normal;font-variant-position:normal;font-variant-caps:normal;font-variant-numeric:normal;font-variant-alternates:normal;font-variant-east-asian:normal;font-feature-settings:normal;font-variation-settings:normal;text-indent:0;text-align:start;text-decoration:none;text-decoration-line:none;text-decoration-style:solid;text-decoration-color:#000000;letter-spacing:normal;word-spacing:normal;text-transform:none;writing-mode:lr-tb;direction:ltr;text-orientation:mixed;dominant-baseline:auto;baseline-shift:baseline;text-anchor:start;white-space:normal;shape-padding:0;shape-margin:0;inline-size:0;clip-rule:nonzero;display:inline;overflow:visible;visibility:visible;isolation:auto;mix-blend-mode:normal;color-interpolation:sRGB;color-interpolation-filters:linearRGB;solid-color:#000000;solid-opacity:1;vector-effect:none;fill:#7c7c7c;fill-opacity:1;fill-rule:nonzero;stroke:none;stroke-width:1;stroke-linecap:round;stroke-linejoin:round;stroke-miterlimit:4;stroke-dasharray:none;stroke-dashoffset:0;stroke-opacity:1;color-rendering:auto;image-rendering:auto;shape-rendering:auto;text-rendering:auto;enable-background:accumulate;stop-color:#000000;stop-opacity:1;opacity:1"
     d="M 8.5 5.5 C 6.8490691 5.5 5.5 6.8490691 5.5 8.5 C 5.5 10.150931 6.8490691 11.5 8.5 11.5 C 10.150931 11.5 11.5 10.150931 11.5 8.5 C 11.5 6.8490691 10.150931 5.5 8.5 5.5 z M 8.5 6.5 C 9.6104891 6.5 10.5 7.3895109 10.5 8.5 C 10.5 9.6104891 9.6104891 10.5 8.5 10.5 C 7.3895109 10.5 6.5 9.6104891 6.5 8.5 C 6.5 7.3895109 7.3895109 6.5 8.5 6.5 z "
     id="path656" />
</svg>
