<?xml version="1.0" encoding="UTF-8" standalone="no"?>
<svg
   width="20"
   height="20"
   viewBox="0 0 20 20"
   fill="none"
   version="1.1"
   id="svg109"
   sodipodi:docname="search.svg"
   inkscape:version="1.1-alpha (c0348e27, 2021-02-14)"
   xmlns:inkscape="http://www.inkscape.org/namespaces/inkscape"
   xmlns:sodipodi="http://sodipodi.sourceforge.net/DTD/sodipodi-0.dtd"
   xmlns="http://www.w3.org/2000/svg"
   xmlns:svg="http://www.w3.org/2000/svg">
  <defs
     id="defs113" />
  <sodipodi:namedview
     id="namedview111"
     pagecolor="#505050"
     bordercolor="#eeeeee"
     borderopacity="1"
     objecttolerance="10.0"
     gridtolerance="10.0"
     guidetolerance="10.0"
     inkscape:pageshadow="0"
     inkscape:pageopacity="0"
     inkscape:pagecheckerboard="0"
     showgrid="false"
     inkscape:zoom="31.25"
     inkscape:cx="10"
     inkscape:cy="10"
     inkscape:window-width="1440"
     inkscape:window-height="847"
     inkscape:window-x="0"
     inkscape:window-y="205"
     inkscape:window-maximized="0"
     inkscape:current-layer="svg109" />
  <path
     id="path105"
     style="color:#000000;fill:#ffffff;stroke-linecap:round;stroke-linejoin:round;-inkscape-stroke:none"
     d="M 9.1992188 0.5 C 4.5107236 0.5 0.69921875 4.3115049 0.69921875 9 C 0.69921875 13.688514 4.5107251 17.5 9.1992188 17.5 C 11.363659 17.5 13.334025 16.679642 14.835938 15.34375 L 18.845703 19.353516 A 0.5 0.5 0 0 0 19.552734 19.353516 A 0.5 0.5 0 0 0 19.552734 18.646484 L 15.542969 14.636719 C 16.878862 13.134807 17.699219 11.164444 17.699219 9 C 17.699219 4.3115064 13.887723 0.5 9.1992188 0.5 z M 9.1992188 1.5 C 13.347285 1.5 16.699219 4.8519424 16.699219 9 C 16.699219 11.065559 15.866248 12.931948 14.519531 14.287109 A 0.5 0.5 0 0 0 14.496094 14.296875 A 0.5 0.5 0 0 0 14.486328 14.320312 C 13.131166 15.667028 11.264772 16.5 9.1992188 16.5 C 5.0511612 16.5 1.6992187 13.148077 1.6992188 9 C 1.6992189 4.8519439 5.0511626 1.5 9.1992188 1.5 z " />
</svg>
