<?xml version="1.0" encoding="UTF-8" standalone="no"?>
<svg
   width="95"
   height="97"
   viewBox="0 0 95 97"
   fill="none"
   version="1.1"
   id="svg8"
   sodipodi:docname="search-big.svg"
   inkscape:version="1.1-alpha (c0348e27, 2021-02-14)"
   xmlns:inkscape="http://www.inkscape.org/namespaces/inkscape"
   xmlns:sodipodi="http://sodipodi.sourceforge.net/DTD/sodipodi-0.dtd"
   xmlns="http://www.w3.org/2000/svg"
   xmlns:svg="http://www.w3.org/2000/svg">
  <defs
     id="defs12" />
  <sodipodi:namedview
     id="namedview10"
     pagecolor="#505050"
     bordercolor="#eeeeee"
     borderopacity="1"
     objecttolerance="10.0"
     gridtolerance="10.0"
     guidetolerance="10.0"
     inkscape:pageshadow="0"
     inkscape:pageopacity="0"
     inkscape:pagecheckerboard="0"
     showgrid="false"
     inkscape:zoom="6.443299"
     inkscape:cx="47.4912"
     inkscape:cy="48.5"
     inkscape:window-width="1327"
     inkscape:window-height="847"
     inkscape:window-x="0"
     inkscape:window-y="205"
     inkscape:window-maximized="0"
     inkscape:current-layer="svg8" />
  <path
     id="path2"
     style="color:#000000;fill:#000000;-inkscape-stroke:none"
     d="M 37.210938 0.001953125 C 32.278138 -0.035211815 27.386272 0.91362488 22.826172 2.7949219 C 18.266072 4.6762319 14.129903 7.4505481 10.658203 10.955078 C -3.3399669 25.066878 -3.5779787 48.043859 10.113281 62.443359 C 16.127181 68.777259 24.189794 72.776728 32.871094 73.736328 C 41.552394 74.696028 50.292822 72.553147 57.544922 67.685547 L 84.279297 95.484375 C 84.442897 95.655075 84.638869 95.791719 84.855469 95.886719 C 85.072069 95.981619 85.304616 96.032409 85.541016 96.037109 C 85.777416 96.041809 86.012322 96.000362 86.232422 95.914062 C 86.452622 95.827862 86.653919 95.699156 86.824219 95.535156 L 93.486328 89.128906 C 93.657028 88.965206 93.793772 88.769234 93.888672 88.552734 C 93.983672 88.336134 94.034363 88.103588 94.039062 87.867188 C 94.043762 87.630788 94.002216 87.395981 93.916016 87.175781 C 93.829816 86.955681 93.701109 86.754284 93.537109 86.583984 L 66.802734 58.785156 C 71.928034 51.763056 74.414725 43.160128 73.828125 34.486328 C 73.241525 25.812528 69.619803 17.621616 63.595703 11.353516 C 60.177203 7.7971256 56.081981 4.9615188 51.550781 3.0117188 C 47.019481 1.0619188 42.143738 0.039118085 37.210938 0.001953125 z M 36.787109 10.539062 C 38.729098 10.528542 40.675397 10.732381 42.591797 11.152344 C 47.702197 12.272244 52.365187 14.882044 55.992188 18.652344 C 58.400387 21.155844 60.291694 24.10925 61.558594 27.34375 C 62.825494 30.57825 63.444253 34.030806 63.376953 37.503906 C 63.309653 40.977006 62.559269 44.403038 61.167969 47.585938 C 59.776569 50.768937 57.771078 53.646487 55.267578 56.054688 C 51.497178 59.681587 46.735838 62.108397 41.585938 63.029297 C 36.435938 63.950297 31.129638 63.323916 26.335938 61.228516 C 21.542238 59.133116 17.475997 55.663313 14.654297 51.257812 C 11.832597 46.852413 10.381022 41.709216 10.482422 36.478516 C 10.583822 31.247916 12.234209 26.163894 15.224609 21.871094 C 18.214909 17.578294 22.411903 14.269328 27.283203 12.361328 C 30.327766 11.168828 33.550462 10.556597 36.787109 10.539062 z M 38.078125 14.822266 C 30.072225 14.640966 22.784509 18.659775 18.912109 24.734375 C 17.647909 26.711675 21.237141 28.457834 22.494141 26.490234 C 25.701841 21.469634 31.797766 18.272819 38.384766 18.449219 C 45.293266 18.623319 51.581656 22.575847 54.910156 28.060547 C 56.174356 30.141747 59.481063 28.248787 58.226562 26.179688 C 54.187363 19.520188 46.349925 15.010766 38.078125 14.822266 z M 17.34375 29.623047 C 14.36815 29.623047 14.36335 34.246094 17.34375 34.246094 C 20.32425 34.246094 20.32175 29.623047 17.34375 29.623047 z " />
</svg>
