<?xml version="1.0" encoding="UTF-8" standalone="no"?>
<svg
   width="24"
   height="24"
   viewBox="0 0 24 24"
   fill="none"
   version="1.1"
   id="svg6"
   sodipodi:docname="settings.svg"
   inkscape:version="1.1-alpha (c0348e27, 2021-02-14)"
   xmlns:inkscape="http://www.inkscape.org/namespaces/inkscape"
   xmlns:sodipodi="http://sodipodi.sourceforge.net/DTD/sodipodi-0.dtd"
   xmlns="http://www.w3.org/2000/svg"
   xmlns:svg="http://www.w3.org/2000/svg">
  <defs
     id="defs10" />
  <sodipodi:namedview
     id="namedview8"
     pagecolor="#ffffff"
     bordercolor="#666666"
     borderopacity="1.0"
     objecttolerance="10.0"
     gridtolerance="10.0"
     guidetolerance="10.0"
     inkscape:pageshadow="2"
     inkscape:pageopacity="0.0"
     inkscape:pagecheckerboard="0"
     showgrid="false"
     inkscape:zoom="18.077294"
     inkscape:cx="18.697489"
     inkscape:cy="14.686933"
     inkscape:window-width="1327"
     inkscape:window-height="847"
     inkscape:window-x="0"
     inkscape:window-y="205"
     inkscape:window-maximized="0"
     inkscape:current-layer="svg6" />
  <path
     id="path2"
     style="color:#000000;fill:#000000;stroke-linecap:round;stroke-linejoin:round;-inkscape-stroke:none"
     d="M 12.103516 0.5 C 11.440694 0.5 10.80466 0.76372408 10.335938 1.2324219 C 9.867352 1.7010944 9.6035156 2.3370995 9.6035156 3 L 9.6035156 3.1699219 C 9.6023112 3.393441 9.535634 3.6122897 9.4121094 3.7988281 C 9.2945139 3.9764028 9.1244403 4.1097713 8.9316406 4.1992188 A 0.50005 0.50005 0 0 0 8.8203125 4.2226562 C 8.6100523 4.3154546 8.3785001 4.3437409 8.1523438 4.3027344 C 7.9262186 4.2617392 7.7170296 4.1528995 7.5527344 3.9921875 L 7.4960938 3.9375 C 7.263921 3.7050772 6.9890446 3.5203427 6.6855469 3.3945312 C 6.3820508 3.2687203 6.0570405 3.203125 5.7285156 3.203125 C 5.3999908 3.203125 5.0749812 3.268715 4.7714844 3.3945312 C 4.4679867 3.5203427 4.1911572 3.7050772 3.9589844 3.9375 C 3.7271084 4.1694309 3.5435707 4.4450546 3.4179688 4.7480469 C 3.2921578 5.051543 3.2265625 5.3765533 3.2265625 5.7050781 C 3.2265625 6.033603 3.2921574 6.3586133 3.4179688 6.6621094 C 3.5437803 6.9656071 3.7265616 7.2424366 3.9589844 7.4746094 L 4.015625 7.5292969 C 4.176337 7.6935921 4.2832236 7.9027811 4.3242188 8.1289062 C 4.3652238 8.3550528 4.3388918 8.5885534 4.2460938 8.7988281 A 0.50005 0.50005 0 0 0 4.234375 8.828125 C 4.1547131 9.0447346 4.0119564 9.2309547 3.8242188 9.3652344 C 3.6364535 9.4995286 3.4122937 9.5747123 3.1816406 9.5800781 L 3.1035156 9.5800781 C 2.440678 9.5800781 1.8046466 9.8437534 1.3359375 10.3125 C 0.86723974 10.781223 0.60351563 11.417257 0.60351562 12.080078 C 0.60351562 12.7429 0.86723974 13.378933 1.3359375 13.847656 C 1.8046466 14.316403 2.440678 14.580078 3.1035156 14.580078 L 3.2734375 14.580078 C 3.4971599 14.581378 3.7158893 14.647988 3.9023438 14.771484 C 4.0894319 14.895401 4.2358645 15.071165 4.3242188 15.277344 A 0.50005 0.50005 0 0 0 4.3261719 15.28125 C 4.4189569 15.491482 4.4453007 15.725031 4.4042969 15.951172 C 4.3632919 16.177321 4.2564456 16.386441 4.0957031 16.550781 L 4.0390625 16.607422 C 3.8071275 16.83936 3.6236433 17.11499 3.4980469 17.417969 C 3.3722267 17.721487 3.3066406 18.046498 3.3066406 18.375 C 3.3066406 18.703502 3.3722266 19.028513 3.4980469 19.332031 C 3.6236433 19.63501 3.8071239 19.910647 4.0390625 20.142578 C 4.2712668 20.375095 4.548024 20.559781 4.8515625 20.685547 C 5.155104 20.811444 5.4800689 20.876953 5.8085938 20.876953 C 6.1371186 20.876953 6.4620842 20.811443 6.765625 20.685547 C 7.0691635 20.559781 7.3439676 20.375095 7.5761719 20.142578 L 7.6328125 20.087891 C 7.7971416 19.927173 8.0063564 19.818321 8.2324219 19.777344 C 8.4585953 19.736344 8.6901184 19.764632 8.9003906 19.857422 A 0.50005 0.50005 0 0 0 8.9296875 19.869141 C 9.1463391 19.948831 9.3344858 20.091574 9.46875 20.279297 C 9.6030227 20.467003 9.6782259 20.691129 9.6835938 20.921875 L 9.6835938 21 C 9.6835938 21.662878 9.9474499 22.298888 10.416016 22.767578 C 10.884743 23.236305 11.520779 23.5 12.183594 23.5 C 12.846484 23.5 13.482445 23.236305 13.951172 22.767578 C 14.419768 22.298856 14.683594 21.662815 14.683594 21 L 14.683594 20.832031 L 14.683594 20.830078 C 14.684894 20.606445 14.751454 20.387704 14.875 20.201172 C 14.998705 20.01429 15.174606 19.867741 15.380859 19.779297 A 0.50005 0.50005 0 0 0 15.384766 19.777344 C 15.59519 19.684514 15.828502 19.65627 16.054688 19.697266 C 16.280776 19.738246 16.490118 19.847189 16.654297 20.007812 L 16.708984 20.0625 C 16.941226 20.294992 17.217959 20.479708 17.521484 20.605469 C 17.825003 20.731351 18.150013 20.796875 18.478516 20.796875 C 18.807093 20.796875 19.132028 20.731355 19.435547 20.605469 C 19.739072 20.479708 20.013852 20.294992 20.246094 20.0625 C 20.477965 19.830574 20.663439 19.554849 20.789062 19.251953 C 20.914803 18.948479 20.980469 18.623424 20.980469 18.294922 C 20.980469 17.96642 20.9148 17.641364 20.789062 17.337891 C 20.663229 17.03449 20.478511 16.757558 20.246094 16.525391 L 20.191406 16.470703 C 20.030704 16.306375 19.921943 16.097367 19.880859 15.871094 C 19.839869 15.644926 19.868157 15.411402 19.960938 15.201172 A 0.50005 0.50005 0 0 0 19.962891 15.197266 C 20.051291 14.991053 20.197666 14.815326 20.384766 14.691406 C 20.571226 14.56791 20.790065 14.501274 21.013672 14.5 L 21.103516 14.5 C 21.766406 14.5 22.402367 14.236305 22.871094 13.767578 C 23.339691 13.298856 23.603516 12.662815 23.603516 12 C 23.603516 11.337185 23.339691 10.701144 22.871094 10.232422 C 22.402329 9.7637848 21.766406 9.5 21.103516 9.5 L 20.935547 9.5 L 20.933594 9.5 C 20.710105 9.49874 20.491193 9.4321055 20.304688 9.3085938 C 20.127098 9.1909925 19.99378 9.020948 19.904297 8.828125 A 0.50005 0.50005 0 0 0 19.880859 8.71875 C 19.788069 8.5084777 19.759788 8.2750015 19.800781 8.0488281 C 19.841861 7.8225585 19.950661 7.6134962 20.111328 7.4492188 L 20.166016 7.3945312 L 20.166016 7.3925781 C 20.397986 7.1606153 20.583354 6.8849408 20.708984 6.5820312 C 20.834714 6.27858 20.900391 5.9535249 20.900391 5.625 C 20.900391 5.2964751 20.834711 4.9714201 20.708984 4.6679688 C 20.583354 4.3650558 20.397986 4.0893847 20.166016 3.8574219 C 19.933842 3.6249361 19.658953 3.4402591 19.355469 3.3144531 C 19.051995 3.1886515 18.727016 3.1230469 18.398438 3.1230469 C 18.069935 3.1230469 17.74488 3.1886519 17.441406 3.3144531 C 17.137922 3.4402591 16.861117 3.625024 16.628906 3.8574219 L 16.574219 3.9121094 C 16.410074 4.0727289 16.200756 4.1816585 15.974609 4.2226562 C 15.748441 4.2636652 15.515099 4.2354191 15.304688 4.1425781 A 0.50005 0.50005 0 0 0 15.300781 4.140625 C 15.094637 4.0522544 14.918653 3.905663 14.794922 3.71875 C 14.671381 3.5322286 14.60479 3.3134636 14.603516 3.0898438 L 14.603516 3 C 14.603516 2.3371624 14.33971 1.7011258 13.871094 1.2324219 C 13.402371 0.76372408 12.766412 0.5 12.103516 0.5 z M 12.103516 1.5 C 12.501618 1.5 12.882585 1.6579916 13.164062 1.9394531 C 13.445444 2.2208884 13.603516 2.6019787 13.603516 3 L 13.603516 3.0898438 A 0.50005 0.50005 0 0 0 13.603516 3.0917969 C 13.605216 3.5104548 13.730106 3.9203514 13.960938 4.2695312 C 14.191888 4.6184166 14.520151 4.8913715 14.904297 5.0566406 C 15.296339 5.2287599 15.731014 5.2814734 16.152344 5.2050781 C 16.574996 5.1284561 16.966384 4.9274132 17.273438 4.6269531 A 0.50005 0.50005 0 0 0 17.277344 4.6230469 L 17.335938 4.5644531 A 0.50005 0.50005 0 0 0 17.335938 4.5625 C 17.475327 4.4229983 17.642103 4.3137752 17.824219 4.2382812 C 18.006345 4.1627833 18.201341 4.1230469 18.398438 4.1230469 C 18.595661 4.1230469 18.79053 4.1627829 18.972656 4.2382812 C 19.154772 4.3137752 19.319758 4.4230861 19.458984 4.5625 A 0.50005 0.50005 0 0 0 19.458984 4.5644531 C 19.598467 4.7037485 19.709596 4.8685954 19.785156 5.0507812 C 19.860626 5.2329295 19.900391 5.4278654 19.900391 5.625 C 19.900391 5.8221346 19.860631 6.0170707 19.785156 6.1992188 C 19.709596 6.3814047 19.598467 6.5462515 19.458984 6.6855469 L 19.400391 6.7460938 A 0.50005 0.50005 0 0 0 19.396484 6.75 C 19.096152 7.0570821 18.893122 7.4466309 18.816406 7.8691406 A 0.50005 0.50005 0 0 0 18.816406 7.8710938 C 18.749196 8.2419162 18.797955 8.6176919 18.923828 8.9707031 L 18.923828 9 A 0.50005 0.50005 0 0 0 18.962891 9.1972656 C 19.128087 9.5825986 19.402388 9.9110937 19.751953 10.142578 C 20.101517 10.374075 20.512441 10.498332 20.931641 10.5 A 0.50005 0.50005 0 0 0 20.933594 10.5 L 21.103516 10.5 C 21.501624 10.5 21.882591 10.657981 22.164062 10.939453 C 22.445466 11.220931 22.603516 11.602016 22.603516 12 C 22.603516 12.397984 22.445466 12.779069 22.164062 13.060547 C 21.882547 13.342019 21.501624 13.5 21.103516 13.5 L 21.013672 13.5 A 0.50005 0.50005 0 0 0 21.011719 13.5 C 20.592592 13.5017 20.18164 13.62587 19.832031 13.857422 C 19.483738 14.088103 19.210305 14.415162 19.044922 14.798828 C 19.044922 14.798828 19.044922 14.800781 19.044922 14.800781 C 18.872141 15.193278 18.819997 15.626848 18.896484 16.048828 A 0.50005 0.50005 0 0 0 18.896484 16.050781 C 18.973204 16.473307 19.176265 16.86285 19.476562 17.169922 A 0.50005 0.50005 0 0 0 19.480469 17.173828 L 19.539062 17.234375 C 19.678445 17.373608 19.789668 17.538504 19.865234 17.720703 C 19.940694 17.902829 19.980469 18.097825 19.980469 18.294922 C 19.980469 18.492019 19.940699 18.687015 19.865234 18.869141 C 19.789664 19.05134 19.678445 19.216236 19.539062 19.355469 A 0.50005 0.50005 0 0 0 19.539062 19.357422 C 19.399705 19.49693 19.234809 19.606201 19.052734 19.681641 C 18.870653 19.757161 18.675738 19.796875 18.478516 19.796875 C 18.281419 19.796875 18.086378 19.757155 17.904297 19.681641 C 17.722222 19.606201 17.555373 19.49693 17.416016 19.357422 L 17.357422 19.296875 A 0.50005 0.50005 0 0 0 17.353516 19.292969 C 17.046495 18.992594 16.655134 18.791464 16.232422 18.714844 C 15.811109 18.638474 15.376405 18.691194 14.984375 18.863281 C 14.600341 19.028554 14.271993 19.301454 14.041016 19.650391 C 13.810187 19.999579 13.685285 20.40946 13.683594 20.828125 A 0.50005 0.50005 0 0 0 13.683594 20.830078 L 13.683594 21 C 13.683594 21.397984 13.525543 21.779069 13.244141 22.060547 C 12.962711 22.342019 12.581703 22.5 12.183594 22.5 C 11.78561 22.5 11.404519 22.342019 11.123047 22.060547 C 10.841613 21.779038 10.683594 21.397921 10.683594 21 L 10.683594 20.910156 A 0.50005 0.50005 0 0 0 10.683594 20.908203 A 0.50005 0.50005 0 0 0 10.683594 20.90625 A 0.50005 0.50005 0 0 0 10.683594 20.900391 A 0.50005 0.50005 0 0 0 10.683594 20.898438 C 10.673562 20.467181 10.53421 20.048159 10.283203 19.697266 C 10.035578 19.351045 9.6870771 19.091431 9.2890625 18.941406 C 8.8999498 18.773165 8.4700818 18.719274 8.0527344 18.794922 C 7.6300205 18.871544 7.2406242 19.072765 6.9335938 19.373047 A 0.50005 0.50005 0 0 0 6.9296875 19.376953 L 6.8691406 19.435547 A 0.50005 0.50005 0 0 0 6.8691406 19.4375 C 6.7298453 19.576983 6.5648735 19.686285 6.3828125 19.761719 C 6.2007538 19.837229 6.0057285 19.876953 5.8085938 19.876953 C 5.6114591 19.876953 5.416413 19.837223 5.234375 19.761719 C 5.0523179 19.686248 4.8853891 19.576983 4.7460938 19.4375 A 0.50005 0.50005 0 0 0 4.7460938 19.435547 C 4.6066799 19.296367 4.4973688 19.131334 4.421875 18.949219 C 4.3463954 18.767138 4.3066406 18.572097 4.3066406 18.375 C 4.3066406 18.177903 4.3463956 17.982862 4.421875 17.800781 C 4.497369 17.618666 4.60668 17.45368 4.7460938 17.314453 L 4.8066406 17.253906 A 0.50005 0.50005 0 0 0 4.8105469 17.25 C 5.1108839 16.942941 5.3120373 16.551556 5.3886719 16.128906 C 5.4651899 15.706899 5.4130269 15.273354 5.2402344 14.880859 C 5.0749475 14.49655 4.8018355 14.168466 4.453125 13.9375 C 4.10353 13.705948 3.6945808 13.581772 3.2753906 13.580078 A 0.50005 0.50005 0 0 0 3.2734375 13.580078 L 3.1035156 13.580078 C 2.7054943 13.580078 2.3243989 13.422078 2.0429688 13.140625 C 1.7615072 12.859149 1.6035156 12.478056 1.6035156 12.080078 C 1.6035156 11.682101 1.7615073 11.301008 2.0429688 11.019531 C 2.3243989 10.738079 2.7054943 10.580078 3.1035156 10.580078 L 3.1933594 10.580078 A 0.50005 0.50005 0 0 0 3.2050781 10.580078 C 3.6364038 10.570044 4.0554157 10.430612 4.40625 10.179688 C 4.7524364 9.9320768 5.0120915 9.5836205 5.1621094 9.1855469 C 5.3303551 8.7964421 5.3842703 8.3685376 5.3085938 7.9511719 C 5.2319691 7.5285176 5.0308363 7.1371425 4.7304688 6.8300781 A 0.50005 0.50005 0 0 0 4.7265625 6.8261719 L 4.6660156 6.765625 C 4.5265388 6.6262982 4.4172851 6.4613987 4.3417969 6.2792969 C 4.266308 6.0971935 4.2265625 5.9022127 4.2265625 5.7050781 C 4.2265625 5.5079435 4.2663085 5.3129628 4.3417969 5.1308594 C 4.4172849 4.9487576 4.5265388 4.7838582 4.6660156 4.6445312 A 0.50005 0.50005 0 0 0 4.6660156 4.6425781 C 4.8053425 4.5030982 4.9721951 4.3938476 5.1542969 4.3183594 C 5.3363796 4.2428759 5.531381 4.203125 5.7285156 4.203125 C 5.9256502 4.203125 6.120631 4.242871 6.3027344 4.3183594 C 6.4848362 4.3938474 6.6497357 4.5031013 6.7890625 4.6425781 L 6.8496094 4.703125 A 0.50005 0.50005 0 0 0 6.8535156 4.7070312 C 7.16058 5.0073988 7.550002 5.2085316 7.9726562 5.2851562 C 8.3409789 5.35194 8.7150446 5.3034569 9.0664062 5.1796875 L 9.1035156 5.1796875 A 0.50005 0.50005 0 0 0 9.3007812 5.1386719 C 9.6861396 4.9735164 10.014603 4.699171 10.246094 4.3496094 C 10.477538 4.0000987 10.601952 3.5912703 10.603516 3.171875 A 0.50005 0.50005 0 0 0 10.603516 3.1699219 L 10.603516 3 C 10.603516 2.6020415 10.761555 2.2209199 11.042969 1.9394531 C 11.324445 1.6579916 11.705538 1.5 12.103516 1.5 z M 12.103516 8.5 C 10.176498 8.5 8.6035156 10.072888 8.6035156 12 C 8.6035156 13.927112 10.176498 15.5 12.103516 15.5 C 14.030617 15.5 15.603516 13.927101 15.603516 12 C 15.603516 10.072899 14.030617 8.5 12.103516 8.5 z M 12.103516 9.5 C 13.490211 9.5 14.603516 10.613305 14.603516 12 C 14.603516 13.386695 13.490211 14.5 12.103516 14.5 C 10.716937 14.5 9.6035156 13.386685 9.6035156 12 C 9.6035156 10.613315 10.716937 9.5 12.103516 9.5 z " />
</svg>
