<?xml version="1.0" encoding="UTF-8" standalone="no"?>
<svg
   width="22"
   height="21"
   viewBox="0 0 22 21"
   fill="none"
   version="1.1"
   id="svg646"
   sodipodi:docname="star.svg"
   inkscape:version="1.1-alpha (c0348e27, 2021-02-14)"
   xmlns:inkscape="http://www.inkscape.org/namespaces/inkscape"
   xmlns:sodipodi="http://sodipodi.sourceforge.net/DTD/sodipodi-0.dtd"
   xmlns="http://www.w3.org/2000/svg"
   xmlns:svg="http://www.w3.org/2000/svg">
  <defs
     id="defs650" />
  <sodipodi:namedview
     id="namedview648"
     pagecolor="#ffffff"
     bordercolor="#666666"
     borderopacity="1.0"
     objecttolerance="10.0"
     gridtolerance="10.0"
     guidetolerance="10.0"
     inkscape:pageshadow="2"
     inkscape:pageopacity="0.0"
     inkscape:pagecheckerboard="0"
     showgrid="false"
     inkscape:zoom="29.761905"
     inkscape:cx="10.9872"
     inkscape:cy="10.5"
     inkscape:window-width="1327"
     inkscape:window-height="847"
     inkscape:window-x="0"
     inkscape:window-y="205"
     inkscape:window-maximized="0"
     inkscape:current-layer="svg646" />
  <path
     id="path644"
     style="color:#000000;fill:#000000;stroke-linecap:round;stroke-linejoin:round;-inkscape-stroke:none"
     d="M 11 0.5 A 0.50005 0.50005 0 0 0 10.550781 0.77929688 L 7.5761719 6.8046875 L 0.92773438 7.7753906 A 0.50005 0.50005 0 0 0 0.65039062 8.6289062 L 5.4628906 13.314453 L 4.328125 19.935547 A 0.50005 0.50005 0 0 0 5.0527344 20.462891 L 11 17.333984 L 16.947266 20.462891 A 0.50005 0.50005 0 0 0 17.671875 19.935547 L 16.537109 13.314453 L 21.349609 8.6289062 A 0.50005 0.50005 0 0 0 21.072266 7.7753906 L 14.421875 6.8027344 L 11.449219 0.77929688 A 0.50005 0.50005 0 0 0 11 0.5 z M 11 2.1308594 L 13.642578 7.4804688 A 0.50005 0.50005 0 0 0 14.017578 7.7539062 L 19.923828 8.6191406 L 15.650391 12.78125 A 0.50005 0.50005 0 0 0 15.507812 13.224609 L 16.515625 19.107422 L 11.232422 16.328125 A 0.50005 0.50005 0 0 0 10.767578 16.328125 L 5.484375 19.107422 L 6.4921875 13.224609 A 0.50005 0.50005 0 0 0 6.3496094 12.78125 L 2.0761719 8.6191406 L 7.9824219 7.7539062 A 0.50005 0.50005 0 0 0 8.3574219 7.4804688 L 11 2.1308594 z " />
</svg>
