<?xml version="1.0" encoding="UTF-8" standalone="no"?>
<svg
   width="16"
   height="16"
   viewBox="0 0 16 16"
   fill="none"
   version="1.1"
   id="svg99"
   sodipodi:docname="sun.svg"
   inkscape:version="1.1-alpha (c0348e27, 2021-02-14)"
   xmlns:inkscape="http://www.inkscape.org/namespaces/inkscape"
   xmlns:sodipodi="http://sodipodi.sourceforge.net/DTD/sodipodi-0.dtd"
   xmlns="http://www.w3.org/2000/svg"
   xmlns:svg="http://www.w3.org/2000/svg">
  <defs
     id="defs103" />
  <sodipodi:namedview
     id="namedview101"
     pagecolor="#505050"
     bordercolor="#eeeeee"
     borderopacity="1"
     objecttolerance="10.0"
     gridtolerance="10.0"
     guidetolerance="10.0"
     inkscape:pageshadow="0"
     inkscape:pageopacity="0"
     inkscape:pagecheckerboard="0"
     showgrid="false"
     inkscape:zoom="39.0625"
     inkscape:cx="7.9872"
     inkscape:cy="8"
     inkscape:window-width="1327"
     inkscape:window-height="847"
     inkscape:window-x="0"
     inkscape:window-y="205"
     inkscape:window-maximized="0"
     inkscape:current-layer="svg99" />
  <path
     id="path81"
     style="color:#000000;fill:#000000;stroke-linecap:round;stroke-linejoin:round;-inkscape-stroke:none"
     d="M 8 0.5 A 0.5 0.5 0 0 0 7.5 1 L 7.5 2.2734375 A 0.5 0.5 0 0 0 8 2.7734375 A 0.5 0.5 0 0 0 8.5 2.2734375 L 8.5 1 A 0.5 0.5 0 0 0 8 0.5 z M 3.0488281 2.5488281 A 0.5 0.5 0 0 0 2.6953125 2.6953125 A 0.5 0.5 0 0 0 2.6953125 3.4023438 L 3.5996094 4.3066406 A 0.5 0.5 0 0 0 4.3066406 4.3066406 A 0.5 0.5 0 0 0 4.3066406 3.5996094 L 3.4023438 2.6953125 A 0.5 0.5 0 0 0 3.0488281 2.5488281 z M 12.951172 2.5488281 A 0.5 0.5 0 0 0 12.597656 2.6953125 L 11.693359 3.5996094 A 0.5 0.5 0 0 0 11.693359 4.3066406 A 0.5 0.5 0 0 0 12.400391 4.3066406 L 13.304688 3.4023438 A 0.5 0.5 0 0 0 13.304688 2.6953125 A 0.5 0.5 0 0 0 12.951172 2.5488281 z M 8 4.3183594 C 5.9725136 4.3183594 4.3183594 5.9725136 4.3183594 8 C 4.3183594 10.027486 5.9725136 11.681641 8 11.681641 C 10.027486 11.681641 11.681641 10.027486 11.681641 8 C 11.681641 5.9725136 10.027486 4.3183594 8 4.3183594 z M 8 5.3183594 C 9.4870501 5.3183594 10.681641 6.5129499 10.681641 8 C 10.681641 9.4870501 9.4870501 10.681641 8 10.681641 C 6.5129499 10.681641 5.3183594 9.4870501 5.3183594 8 C 5.3183594 6.5129499 6.5129499 5.3183594 8 5.3183594 z M 1 7.5 A 0.5 0.5 0 0 0 0.5 8 A 0.5 0.5 0 0 0 1 8.5 L 2.2734375 8.5 A 0.5 0.5 0 0 0 2.7734375 8 A 0.5 0.5 0 0 0 2.2734375 7.5 L 1 7.5 z M 13.726562 7.5 A 0.5 0.5 0 0 0 13.226562 8 A 0.5 0.5 0 0 0 13.726562 8.5 L 15 8.5 A 0.5 0.5 0 0 0 15.5 8 A 0.5 0.5 0 0 0 15 7.5 L 13.726562 7.5 z M 3.953125 11.546875 A 0.5 0.5 0 0 0 3.5996094 11.693359 L 2.6953125 12.597656 A 0.5 0.5 0 0 0 2.6953125 13.304688 A 0.5 0.5 0 0 0 3.4023438 13.304688 L 4.3066406 12.400391 A 0.5 0.5 0 0 0 4.3066406 11.693359 A 0.5 0.5 0 0 0 3.953125 11.546875 z M 12.046875 11.546875 A 0.5 0.5 0 0 0 11.693359 11.693359 A 0.5 0.5 0 0 0 11.693359 12.400391 L 12.597656 13.304688 A 0.5 0.5 0 0 0 13.304688 13.304688 A 0.5 0.5 0 0 0 13.304688 12.597656 L 12.400391 11.693359 A 0.5 0.5 0 0 0 12.046875 11.546875 z M 8 13.226562 A 0.5 0.5 0 0 0 7.5 13.726562 L 7.5 15 A 0.5 0.5 0 0 0 8 15.5 A 0.5 0.5 0 0 0 8.5 15 L 8.5 13.726562 A 0.5 0.5 0 0 0 8 13.226562 z " />
</svg>
