<?xml version="1.0" encoding="UTF-8" standalone="no"?>
<svg
   width="25"
   height="28"
   viewBox="0 0 25 28"
   fill="none"
   version="1.1"
   id="svg660"
   sodipodi:docname="trash.svg"
   inkscape:version="1.1-alpha (c0348e27, 2021-02-14)"
   xmlns:inkscape="http://www.inkscape.org/namespaces/inkscape"
   xmlns:sodipodi="http://sodipodi.sourceforge.net/DTD/sodipodi-0.dtd"
   xmlns="http://www.w3.org/2000/svg"
   xmlns:svg="http://www.w3.org/2000/svg">
  <defs
     id="defs664" />
  <sodipodi:namedview
     id="namedview662"
     pagecolor="#ffffff"
     bordercolor="#666666"
     borderopacity="1.0"
     objecttolerance="10.0"
     gridtolerance="10.0"
     guidetolerance="10.0"
     inkscape:pageshadow="2"
     inkscape:pageopacity="0.0"
     inkscape:pagecheckerboard="0"
     showgrid="false"
     inkscape:zoom="5.1869789"
     inkscape:cx="-15.423236"
     inkscape:cy="29.593334"
     inkscape:window-width="1327"
     inkscape:window-height="847"
     inkscape:window-x="0"
     inkscape:window-y="205"
     inkscape:window-maximized="0"
     inkscape:current-layer="svg660" />
  <path
     style="color:#000000;fill:#000000;stroke-linecap:round;stroke-linejoin:round;-inkscape-stroke:none"
     d="M 10.099609 0.5 C 9.2776247 0.5 8.4894252 0.82698106 7.9082031 1.4082031 C 7.3269853 1.9894329 7 2.7776324 7 3.5996094 L 7 5.6992188 L 3.5996094 5.6992188 L 1 5.6992188 A 0.5 0.5 0 0 0 0.5 6.1992188 A 0.5 0.5 0 0 0 1 6.6992188 L 3.0996094 6.6992188 L 3.0996094 24.400391 C 3.0996094 25.2224 3.4265995 26.010572 4.0078125 26.591797 C 4.5890422 27.173039 5.3772483 27.5 6.1992188 27.5 L 19.199219 27.5 C 20.021214 27.5 20.811346 27.173029 21.392578 26.591797 C 21.973811 26.010564 22.300781 25.222385 22.300781 24.400391 L 22.300781 6.6992188 L 24.400391 6.6992188 A 0.5 0.5 0 0 0 24.900391 6.1992188 A 0.5 0.5 0 0 0 24.400391 5.6992188 L 21.800781 5.6992188 L 18.400391 5.6992188 L 18.400391 3.5996094 C 18.400391 2.7776469 18.073425 1.9894405 17.492188 1.4082031 C 16.910964 0.82699015 16.122791 0.5 15.300781 0.5 L 10.099609 0.5 z M 10.099609 1.5 L 15.300781 1.5 C 15.857971 1.5 16.391182 1.7212684 16.785156 2.1152344 C 17.179118 2.509196 17.400391 3.0424532 17.400391 3.5996094 L 17.400391 5.6992188 L 8 5.6992188 L 8 3.5996094 C 8 3.0424677 8.2212732 2.5092036 8.6152344 2.1152344 C 9.0091913 1.7212774 9.5424562 1.5 10.099609 1.5 z M 4.0996094 6.6992188 L 21.300781 6.6992188 L 21.300781 24.400391 C 21.300781 24.957594 21.079513 25.490799 20.685547 25.884766 C 20.29158 26.278732 19.756423 26.5 19.199219 26.5 L 6.1992188 26.5 C 5.6420508 26.5 5.1087931 26.278723 4.7148438 25.884766 C 4.3208777 25.490792 4.0996094 24.95758 4.0996094 24.400391 L 4.0996094 6.6992188 z M 10.099609 12.199219 A 0.5 0.5 0 0 0 9.5996094 12.699219 L 9.5996094 20.5 A 0.5 0.5 0 0 0 10.099609 21 A 0.5 0.5 0 0 0 10.599609 20.5 L 10.599609 12.699219 A 0.5 0.5 0 0 0 10.099609 12.199219 z M 15.300781 12.199219 A 0.5 0.5 0 0 0 14.800781 12.699219 L 14.800781 20.5 A 0.5 0.5 0 0 0 15.300781 21 A 0.5 0.5 0 0 0 15.800781 20.5 L 15.800781 12.699219 A 0.5 0.5 0 0 0 15.300781 12.199219 z "
     id="path753" />
</svg>
