<svg width="29" height="24" viewBox="0 0 29 24" fill="none" xmlns="http://www.w3.org/2000/svg">
<path d="M19.1124 16.6889L14.2842 11.8607L9.45593 16.6889" stroke="white" stroke-linecap="round" stroke-linejoin="round"/>
<path d="M14.2841 11.8607V22.7242" stroke="white" stroke-linecap="round" stroke-linejoin="round"/>
<path d="M24.4114 19.5737C25.5887 18.9319 26.5187 17.9163 27.0547 16.6872C27.5907 15.4581 27.7021 14.0855 27.3714 12.7861C27.0406 11.4866 26.2866 10.3343 25.2282 9.51099C24.1698 8.6877 22.8674 8.2403 21.5265 8.23942H20.0056C19.6403 6.82624 18.9593 5.51427 18.0139 4.40215C17.0685 3.29003 15.8833 2.4067 14.5474 1.81857C13.2115 1.23044 11.7596 0.952805 10.301 1.00655C8.84231 1.06029 7.41482 1.44401 6.12581 2.12886C4.83679 2.8137 3.71981 3.78185 2.85882 4.96053C1.99784 6.1392 1.41526 7.49772 1.15488 8.93396C0.894504 10.3702 0.963108 11.8468 1.35553 13.2527C1.74796 14.6586 2.454 15.9572 3.42056 17.051" stroke="white" stroke-linecap="round" stroke-linejoin="round"/>
<path d="M19.1124 16.6889L14.2842 11.8607L9.45593 16.6889" stroke="white" stroke-linecap="round" stroke-linejoin="round"/>
</svg>
