<?xml version="1.0" encoding="UTF-8" standalone="no"?>
<svg
   width="42"
   height="35"
   viewBox="0 0 42 35"
   fill="none"
   version="1.1"
   id="svg64"
   sodipodi:docname="upload.svg"
   inkscape:version="1.1-alpha (c0348e27, 2021-02-14)"
   xmlns:inkscape="http://www.inkscape.org/namespaces/inkscape"
   xmlns:sodipodi="http://sodipodi.sourceforge.net/DTD/sodipodi-0.dtd"
   xmlns="http://www.w3.org/2000/svg"
   xmlns:svg="http://www.w3.org/2000/svg">
  <defs
     id="defs68" />
  <sodipodi:namedview
     id="namedview66"
     pagecolor="#505050"
     bordercolor="#eeeeee"
     borderopacity="1"
     objecttolerance="10.0"
     gridtolerance="10.0"
     guidetolerance="10.0"
     inkscape:pageshadow="0"
     inkscape:pageopacity="0"
     inkscape:pagecheckerboard="0"
     showgrid="false"
     inkscape:zoom="17.857143"
     inkscape:cx="21"
     inkscape:cy="17.5"
     inkscape:window-width="1327"
     inkscape:window-height="847"
     inkscape:window-x="0"
     inkscape:window-y="25"
     inkscape:window-maximized="0"
     inkscape:current-layer="svg64" />
  <path
     style="color:#000000;fill:#000000;stroke-linecap:round;stroke-linejoin:round;-inkscape-stroke:none"
     d="m 20.65625,17.005859 -7.271484,7.273438 a 0.5,0.5 0 0 0 0,0.707031 0.5,0.5 0 0 0 0.707031,0 l 6.917969,-6.919922 6.919921,6.919922 a 0.5,0.5 0 0 0 0.707032,0 0.5,0.5 0 0 0 0,-0.707031 l -7.273438,-7.273438 a 0.50005,0.50005 0 0 0 -0.707031,0 z"
     id="path56" />
  <path
     style="color:#000000;fill:#000000;stroke-linecap:round;stroke-linejoin:round;-inkscape-stroke:none"
     d="m 21.009766,16.859375 a 0.5,0.5 0 0 0 -0.5,0.5 v 16.365234 a 0.5,0.5 0 0 0 0.5,0.5 0.5,0.5 0 0 0 0.5,-0.5 V 17.359375 a 0.5,0.5 0 0 0 -0.5,-0.5 z"
     id="path58" />
  <path
     style="color:#000000;fill:#000000;stroke-linecap:round;stroke-linejoin:round;-inkscape-stroke:none"
     d="M 14.992188,0.50976562 C 12.719378,0.5935078 10.494713,1.1926886 8.4863281,2.2597656 6.4778987,3.3268388 4.7380063,4.8353673 3.3964844,6.671875 2.054974,8.5083811 1.1478868,10.623476 0.7421875,12.861328 c -0.40569247,2.237849 -0.29894654,4.53989 0.3125,6.730469 0.6114456,2.190583 1.7107824,4.213749 3.2167969,5.917969 a 0.5,0.5 0 0 0 0.7050781,0.04297 0.5,0.5 0 0 0 0.044922,-0.705078 C 3.6155418,23.256679 2.5883914,21.367278 2.0175781,19.322266 1.4467618,17.277249 1.3458746,15.130162 1.7246094,13.041016 2.1033493,10.951872 2.950758,8.9761891 4.203125,7.2617187 5.4555005,5.54725 7.0801114,4.1387429 8.9550781,3.1425781 10.829989,2.1464173 12.907511,1.5879433 15.029297,1.5097656 c 2.121682,-0.078169 4.232539,0.3261563 6.175781,1.1816407 1.943142,0.8554825 3.667817,2.140162 5.042969,3.7578124 1.375064,1.61767 2.365,3.5244772 2.896484,5.5800783 a 0.50005,0.50005 0 0 0 0.484375,0.375 h 2.291016 c 1.908791,0.0012 3.762855,0.638509 5.269531,1.810547 1.506675,1.172036 2.57986,2.812258 3.050781,4.662109 0.470821,1.849827 0.311856,3.802988 -0.451172,5.552734 -0.763025,1.749648 -2.085786,3.195712 -3.761718,4.109375 a 0.5,0.5 0 0 0 -0.201172,0.679688 0.5,0.5 0 0 0 0.679687,0.199219 c 1.870865,-1.019935 3.347446,-2.634742 4.199219,-4.587891 0.851771,-1.95325 1.029485,-4.134249 0.503906,-6.199219 -0.525678,-2.064944 -1.724328,-3.896717 -3.40625,-5.205078 -1.68192,-1.30836 -3.752007,-2.020113 -5.882812,-2.021484 H 29.96875 C 29.378597,9.3510588 28.395353,7.4308316 27.009766,5.8007812 25.536721,4.0679751 23.690829,2.6917663 21.609375,1.7753906 19.527821,0.85901674 17.264901,0.42603248 14.992188,0.50976562 Z"
     id="path60" />
  <path
     style="color:#000000;fill:#000000;stroke-linecap:round;stroke-linejoin:round;-inkscape-stroke:none"
     d="m 20.65625,17.005859 -7.271484,7.273438 a 0.5,0.5 0 0 0 0,0.707031 0.5,0.5 0 0 0 0.707031,0 l 6.917969,-6.919922 6.919921,6.919922 a 0.5,0.5 0 0 0 0.707032,0 0.5,0.5 0 0 0 0,-0.707031 l -7.273438,-7.273438 a 0.50005,0.50005 0 0 0 -0.707031,0 z"
     id="path62" />
</svg>
