<?xml version="1.0" encoding="UTF-8" standalone="no"?>
<svg
   xmlns:dc="http://purl.org/dc/elements/1.1/"
   xmlns:cc="http://creativecommons.org/ns#"
   xmlns:rdf="http://www.w3.org/1999/02/22-rdf-syntax-ns#"
   xmlns:svg="http://www.w3.org/2000/svg"
   xmlns="http://www.w3.org/2000/svg"
   xmlns:sodipodi="http://sodipodi.sourceforge.net/DTD/sodipodi-0.dtd"
   xmlns:inkscape="http://www.inkscape.org/namespaces/inkscape"
   width="19"
   height="21"
   viewBox="0 0 19 21"
   fill="none"
   version="1.1"
   id="svg62"
   sodipodi:docname="user path.svg"
   inkscape:version="1.0.1 (0767f8302a, 2020-10-17)">
  <metadata
     id="metadata68">
    <rdf:RDF>
      <cc:Work
         rdf:about="">
        <dc:format>image/svg+xml</dc:format>
        <dc:type
           rdf:resource="http://purl.org/dc/dcmitype/StillImage" />
        <dc:title></dc:title>
      </cc:Work>
    </rdf:RDF>
  </metadata>
  <defs
     id="defs66" />
  <sodipodi:namedview
     pagecolor="#ffffff"
     bordercolor="#666666"
     borderopacity="1"
     objecttolerance="10"
     gridtolerance="10"
     guidetolerance="10"
     inkscape:pageopacity="0"
     inkscape:pageshadow="2"
     inkscape:window-width="1920"
     inkscape:window-height="991"
     id="namedview64"
     showgrid="false"
     inkscape:zoom="27.613011"
     inkscape:cx="9.7065853"
     inkscape:cy="11.171418"
     inkscape:window-x="0"
     inkscape:window-y="0"
     inkscape:window-maximized="1"
     inkscape:current-layer="svg62"
     inkscape:document-rotation="0" />
  <path
     style="color:#000000;font-style:normal;font-variant:normal;font-weight:normal;font-stretch:normal;font-size:medium;line-height:normal;font-family:sans-serif;font-variant-ligatures:normal;font-variant-position:normal;font-variant-caps:normal;font-variant-numeric:normal;font-variant-alternates:normal;font-variant-east-asian:normal;font-feature-settings:normal;font-variation-settings:normal;text-indent:0;text-align:start;text-decoration:none;text-decoration-line:none;text-decoration-style:solid;text-decoration-color:#000000;letter-spacing:normal;word-spacing:normal;text-transform:none;writing-mode:lr-tb;direction:ltr;text-orientation:mixed;dominant-baseline:auto;baseline-shift:baseline;text-anchor:start;white-space:normal;shape-padding:0;shape-margin:0;inline-size:0;clip-rule:nonzero;display:inline;overflow:visible;visibility:visible;isolation:auto;mix-blend-mode:normal;color-interpolation:sRGB;color-interpolation-filters:linearRGB;solid-color:#000000;solid-opacity:1;vector-effect:none;fill:#4736b9;fill-opacity:1;fill-rule:nonzero;stroke:none;stroke-width:1;stroke-linecap:round;stroke-linejoin:round;stroke-miterlimit:4;stroke-dasharray:none;stroke-dashoffset:0;stroke-opacity:1;color-rendering:auto;image-rendering:auto;shape-rendering:auto;text-rendering:auto;enable-background:accumulate;stop-color:#000000;stop-opacity:1;opacity:1"
     d="M 5.25 13.25 C 3.990404 13.25 2.781281 13.750002 1.890625 14.640625 C 0.99995603 15.53126 0.5 16.740386 0.5 18 L 0.5 20.125 A 0.5 0.5 0 0 0 1 20.625 A 0.5 0.5 0 0 0 1.5 20.125 L 1.5 18 C 1.5 17.005214 1.8942652 16.051021 2.5976562 15.347656 C 3.3010602 14.644279 4.255256 14.25 5.25 14.25 L 13.75 14.25 C 14.744777 14.25 15.698974 14.644287 16.402344 15.347656 C 17.105713 16.051026 17.5 17.005223 17.5 18 L 17.5 20.125 A 0.5 0.5 0 0 0 18 20.625 A 0.5 0.5 0 0 0 18.5 20.125 L 18.5 18 C 18.5 16.740377 18.000005 15.531255 17.109375 14.640625 C 16.218745 13.749995 15.009623 13.25 13.75 13.25 L 5.25 13.25 z "
     id="path106" />
  <path
     style="color:#000000;font-style:normal;font-variant:normal;font-weight:normal;font-stretch:normal;font-size:medium;line-height:normal;font-family:sans-serif;font-variant-ligatures:normal;font-variant-position:normal;font-variant-caps:normal;font-variant-numeric:normal;font-variant-alternates:normal;font-variant-east-asian:normal;font-feature-settings:normal;font-variation-settings:normal;text-indent:0;text-align:start;text-decoration:none;text-decoration-line:none;text-decoration-style:solid;text-decoration-color:#000000;letter-spacing:normal;word-spacing:normal;text-transform:none;writing-mode:lr-tb;direction:ltr;text-orientation:mixed;dominant-baseline:auto;baseline-shift:baseline;text-anchor:start;white-space:normal;shape-padding:0;shape-margin:0;inline-size:0;clip-rule:nonzero;display:inline;overflow:visible;visibility:visible;isolation:auto;mix-blend-mode:normal;color-interpolation:sRGB;color-interpolation-filters:linearRGB;solid-color:#000000;solid-opacity:1;vector-effect:none;fill:#4736b9;fill-opacity:1;fill-rule:nonzero;stroke:none;stroke-width:1;stroke-linecap:round;stroke-linejoin:round;stroke-miterlimit:4;stroke-dasharray:none;stroke-dashoffset:0;stroke-opacity:1;color-rendering:auto;image-rendering:auto;shape-rendering:auto;text-rendering:auto;enable-background:accumulate;stop-color:#000000;stop-opacity:1;opacity:1"
     d="M 9.5 0.5 C 6.8825699 0.5 4.75 2.6325699 4.75 5.25 C 4.75 7.8674301 6.8825699 10 9.5 10 C 12.117421 10 14.25 7.8674315 14.25 5.25 C 14.25 2.6325685 12.117421 0.5 9.5 0.5 z M 9.5 1.5 C 11.576979 1.5 13.25 3.1730115 13.25 5.25 C 13.25 7.3269885 11.576979 9 9.5 9 C 7.4230101 9 5.75 7.3269899 5.75 5.25 C 5.75 3.1730101 7.4230101 1.5 9.5 1.5 z "
     id="path102" />
</svg>
