<?xml version="1.0" encoding="UTF-8" standalone="no"?>
<svg
   width="18"
   height="14"
   viewBox="0 0 18 14"
   fill="none"
   version="1.1"
   id="svg314"
   sodipodi:docname="wallet.svg"
   inkscape:version="1.1-alpha (c0348e27, 2021-02-14)"
   xmlns:inkscape="http://www.inkscape.org/namespaces/inkscape"
   xmlns:sodipodi="http://sodipodi.sourceforge.net/DTD/sodipodi-0.dtd"
   xmlns="http://www.w3.org/2000/svg"
   xmlns:svg="http://www.w3.org/2000/svg">
  <defs
     id="defs318" />
  <sodipodi:namedview
     id="namedview316"
     pagecolor="#ffffff"
     bordercolor="#666666"
     borderopacity="1.0"
     objecttolerance="10.0"
     gridtolerance="10.0"
     guidetolerance="10.0"
     inkscape:pageshadow="2"
     inkscape:pageopacity="0.0"
     inkscape:pagecheckerboard="0"
     showgrid="false"
     inkscape:zoom="28.333712"
     inkscape:cx="12.088074"
     inkscape:cy="7.2528443"
     inkscape:window-width="1920"
     inkscape:window-height="1027"
     inkscape:window-x="1440"
     inkscape:window-y="25"
     inkscape:window-maximized="0"
     inkscape:current-layer="svg314" />
  <path
     id="path310"
     style="color:#000000;fill:#4736b9;stroke-linecap:round;stroke-linejoin:round;-inkscape-stroke:none"
     d="M 2.4550781 0.5 C 1.3815323 0.5 0.5 1.3815323 0.5 2.4550781 L 0.5 5.3632812 L 0.5 11.181641 C 0.5 12.255167 1.3814991 13.136719 2.4550781 13.136719 L 15.544922 13.136719 C 16.618481 13.136719 17.5 12.255158 17.5 11.181641 L 17.5 5.3632812 L 17.5 2.4550781 C 17.5 1.3815406 16.618448 0.5 15.544922 0.5 L 2.4550781 0.5 z M 2.4550781 1.5 L 15.544922 1.5 C 16.077994 1.5 16.5 1.9219572 16.5 2.4550781 L 16.5 4.8632812 L 1.5 4.8632812 L 1.5 2.4550781 C 1.5 1.9219655 1.9219655 1.5 2.4550781 1.5 z M 1.5 5.8632812 L 16.5 5.8632812 L 16.5 11.181641 C 16.5 11.714721 16.077961 12.136719 15.544922 12.136719 L 2.4550781 12.136719 C 1.9219987 12.136719 1.5 11.714713 1.5 11.181641 L 1.5 5.8632812 z " />
</svg>
